/* XPM */
static char *_c8c1e94b2ca4dd7f9c7e604849a168che5QDftOGO05sOmW[] = {
/* columns rows colors chars-per-pixel */
"50 50 175 2 ",
"   c #1F0D14",
".  c #210F15",
"X  c #221017",
"o  c #251319",
"O  c #28151C",
"+  c #2B181F",
"@  c #2E1C23",
"#  c #321E23",
"$  c #352125",
"%  c #3C2426",
"&  c #36242A",
"*  c #3C262A",
"=  c #3D292D",
"-  c #3C2C33",
";  c #3F3037",
":  c #402727",
">  c #422827",
",  c #412728",
"<  c #442A29",
"1  c #4B2D29",
"2  c #4F312D",
"3  c #54342E",
"4  c #59372F",
"5  c #432E32",
"6  c #463136",
"7  c #4D3435",
"8  c #43343C",
"9  c #4B3639",
"0  c #46383F",
"q  c #4C383C",
"w  c #533634",
"e  c #583730",
"r  c #563834",
"t  c #5C3A33",
"y  c #553A3A",
"u  c #5B3E3C",
"i  c #633D33",
"p  c #613F39",
"a  c #6C4235",
"s  c #65423B",
"d  c #6C453A",
"f  c #744536",
"g  c #724739",
"h  c #724A3D",
"j  c #7A4E3E",
"k  c #7E503F",
"l  c #463A42",
"z  c #493E46",
"x  c #593F40",
"c  c #553F41",
"v  c #4C424A",
"b  c #4D4046",
"n  c #554145",
"m  c #5D4141",
"M  c #51454D",
"N  c #5F494A",
"B  c #5A464A",
"V  c #4F4750",
"C  c #504750",
"Z  c #544B54",
"A  c #594E55",
"S  c #574F58",
"D  c #584F58",
"F  c #575058",
"G  c #5B545D",
"H  c #5F5257",
"J  c #644541",
"K  c #684741",
"L  c #6C4942",
"P  c #624C4F",
"I  c #754E42",
"U  c #794F42",
"Y  c #7B5143",
"T  c #7C5548",
"R  c #624E51",
"E  c #63565C",
"W  c #715958",
"Q  c #7D635F",
"!  c #5C5760",
"~  c #635C65",
"^  c #6C5D61",
"/  c #655F69",
"(  c #66636C",
")  c #6A646D",
"_  c #7E6867",
"`  c #746568",
"'  c #696770",
"]  c #6C6A74",
"[  c #6E6E79",
"{  c #716F79",
"}  c #796E73",
"|  c #72727D",
" . c #835643",
".. c #875844",
"X. c #8B5A45",
"o. c #855949",
"O. c #945E46",
"+. c #915F49",
"@. c #995F45",
"#. c #976047",
"$. c #9B6147",
"%. c #9F6348",
"&. c #9C6248",
"*. c #9B6248",
"=. c #856054",
"-. c #A36347",
";. c #A16246",
":. c #A46347",
">. c #A66447",
",. c #A86547",
"<. c #A36448",
"1. c #A76548",
"2. c #A76649",
"3. c #A96749",
"4. c #AC6749",
"5. c #AB6849",
"6. c #AD684A",
"7. c #B36B4B",
"8. c #B06A4A",
"9. c #B46B4B",
"0. c #B56C4B",
"q. c #B76D4C",
"w. c #B86D4C",
"e. c #BB6E4C",
"r. c #B96E4C",
"t. c #BC6F4C",
"y. c #BE704D",
"u. c #BD704D",
"i. c #826967",
"p. c #836D6B",
"a. c #886F6B",
"s. c #8E6D61",
"d. c #906F63",
"f. c #89706B",
"g. c #8F7771",
"h. c #857A7B",
"j. c #907770",
"k. c #927972",
"l. c #C0714D",
"z. c #C1714E",
"x. c #C3724E",
"c. c #C2724E",
"v. c #C2714E",
"b. c #C4724E",
"n. c #757781",
"m. c #777984",
"M. c #797983",
"N. c #7D7E89",
"B. c #817F87",
"V. c #7F818C",
"C. c #81838D",
"Z. c #848791",
"A. c #868994",
"S. c #8A8C96",
"D. c #8A8E99",
"F. c #8D929D",
"G. c #90919A",
"H. c #8F96A1",
"J. c #8F98A4",
"K. c #9296A0",
"L. c #929AA6",
"P. c #949DA9",
"I. c #96A0AD",
"U. c #99A2AE",
"Y. c #9AA5B2",
"T. c #9CA9B6",
"R. c #9FACB9",
"E. c #A1AEBB",
"W. c #A2B1BE",
"Q. c #A6B5C2",
"!. c #A7B8C5",
"~. c #A8B9C7",
"^. c #ABBDCA",
"/. c #ADC1CE",
"(. c #AEC2D0",
/* pixels */
"y.c.e.*.#.0.c.q.#.$.e.c.7.O.%.t.c.3.O.1.y.c.3.X.X.#.e.c.0.#.%.t.c.7.O.<.y.c.5.O.3.c.c.1.O.6.c.9.i o ",
"y.c.e.%.#.0.c.0.#.$.e.c.7.O.-.t.y.3.O.1.y.y.3.X.X.#.e.c.0.#.%.t.c.7.O.<.y.y.5.O.3.c.t.1.O.6.c.7.i o ",
"c.c.e.%.$.0.c.e.#.$.e.c.9.#.-.t.c.6.O.1.y.c.5.X.X.#.e.c.0.#.%.t.c.7.O.<.y.c.6.O.3.c.c.1.O.6.c.9.i o ",
"c.c.e.%.$.y.c.e.#.<.c.c.9.#.3.c.c.6.O.6.c.c.5.+.X.$.t.b.e.#.-.y.b.7.@.1.c.c.6.O.4.c.c.1.O.7.b.9.i o ",
"c.c.e.$.#.9.c.0.#.#.e.c.7.O.%.e.c.3.+.1.y.c.3.X.X.#.0.c.7.#.$.e.c.6.O.<.t.c.3.O.1.y.y.1.O.5.c.7.i o ",
"-.:.$.....$.,.$. .X.-.:.O. .X.-.:.+. .O.:.-.X.Y U ..$.,.#. ...-.>.O. .X.-.>.+. .+.>.>.X. .O.>.@.3 o ",
"f f f i i a f f i i f f a i a f f a i a f f a t t i f f f i i f f a i i f f a t a f f a i a f a > o ",
"1 1 1 : : 1 1 1 : : 1 1 < : : < 1 < % > 1 1 : % % : < 1 < : : 1 1 < % > 1 1 < % > 1 1 > % < 1 < # + ",
"# # # @ @ # # # + @ # # # + # # # # + + @ $ # + O @ $ # + + @ # # # + @ # # # + # # # @ + # # # + o ",
": : % $ $ : < % $ $ : < % $ $ > < % # o # z 8 + . & v - + @ $ : < % $ % > < % $ % > > $ $ % < : # + ",
"i i i 6 7 i i r 6 7 i i r 5 w i i w 5 + - ' F @ . l ] v + & w i i r 7 w i i r 6 r i i 7 6 e i t : + ",
" . .U m m U  .U u s Y  .I y J Y  .I y # l A.[ @ X C D.~ # 5 J Y  .I x J Y Y L x L Y Y K x L  .j 1 o ",
"X.X. .J J  .X.Y J J ..X.Y J L X.X.U y # z L.m.@ X S P.' $ 6 L ..X.Y m L X.X.I m U X.X.L m Y X. .2 o ",
"X.X...J J  .+.Y J J ..X.Y J L X.X.U y # v L.m.@ X S I.] $ 6 L X.X.Y J L X.X.Y m U X.X.L m Y +...2 o ",
"X.X. .J J  .X.Y J J ..X.Y m L X.X.U y # z J.n.@ X S P.( $ 6 L ..X.Y m L X.X.I m U X.X.L m Y X. .2 o ",
"..X. .J J  .X.Y m J ..X.Y m L X.X.U y $ v J.n.@ X F P.( $ 6 L ..X.Y m L ..X.I m U X.X.L m Y X.Y 2 o ",
"..X. .J J  .X.Y m J ..X.Y m L X.X.U y # z J.n.@ X F P.( $ 6 L X.X.Y J L ..X.I m U X.X.L m U X.Y 2 o ",
"X.X. .J J  .X.Y m J ..X.Y m L X.X.U y # z J.n.@ X F P.( $ 6 L ..X.Y m L ..X.I m U X.X.L m U X. .2 o ",
"+.+.X.L J Y ..Y m J ..X.Y m L X.X.U y # z J.n.@ X F P.( $ 5 J Y  .I u K ..X.I m U ..Y L J T +...3 o ",
"k.k.j.` P s j Y J J ..X.Y m L ..X.U y $ v J.n.@ X F P.( @ & w i i e 1 s X.X.I m U  .a m ^ a.k.f.y o ",
"P.P.P.C.~ w a Y J J ..X.Y m L ..X.U y # z J.n.@ X F P.( @ + $ : , $ $ t X.X.I m U h w B | F.U.K.A + ",
"Q.Q.W.P.[ 6 i Y J J ..X.Y m L ..X.U y # z J.n.@ X S P.' # + # $ $ # $ t  .X.I m I d < S D.R.~.T.! + ",
"^././.E.V.M r s m J ..X.Y m L X.X.U y # l D.| @ X C H.| l 8 l z v z l m I  .I m J p l ( U.^.(.E.! + ",
"R.~.(.^.H.( n 7 y J ..X.Y m L X.X.U y # l C.] @ X v D.V.~ ~ ' | | | | R t j U u 7 y E Z.Q.(.(.Y.G + ",
"P.R./.^.T.V.Z * 7 J ..X.Y m L X.X.U y $ 8 m./ @ X v Z.S.N.N.S.I.T.T.P.~ 7 h U y * 8 ' L.!./.~.F.Z o ",
"V.S.Y.T.L.V.Z * 7 J ..X.Y m L X.X.U y $ 8 m./ @ X l N.P.F.C.S.I.Y.E.Q.( * d U y * 8 ' F.I.T.L.m.z o ",
"G ( | | [ ~ n 7 y J ..X.Y m L X.X.U y $ 8 { ~ @ X l C.T.P.| ( | | F.W.) $ d Y u 7 y E ' | | ' G - o ",
"5 8 l l l 0 u s m J ..X.Y m L X.X.U y $ 8 | ~ @ X l C.R.P.G 8 l l ( Y.' * d U m s s l l l z l 5 # O ",
"# # # # @ $ i Y J J ..X.Y m L X.X.U y $ 8 m./ @ X l C.T.D.z + @ $ G P.| 6 s L m I h > @ @ # # # + o ",
"% : % # # < a Y J J ..X.Y m L X.X.U y $ 8 N.( @ X z S.L.{ 8 o X & ( T.D.G u t m U j 2 $ # $ : % # o ",
"i i t 1 1 i k Y J J ..X.Y m L X.X.U y # l A.[ @ X C H.V.S 8 # + v C.Q.E.M.z 1 y U  .d 3 < w i t : + ",
" . .Y J m U ..Y m J ..X.Y m L X.X.U y # z H.| @ X S P.[ = 5 = & ~ H.W.!.F.v * y I ..Y J m I ..Y 2 o ",
"k.k.f.^ N L Y Y J J ..X.Y m L X.X.U y # z J.n.@ X S P.( @ 5 q z ) D.P.P.A.G 8 9 I ..U L E p.k.p.y o ",
"G.G.D.M.~ u g Y J J ..X.Y m L X.X.U y $ v J.n.@ X F P.( @ 6 Z ~ p.k.h.[ ] [ G 6 d Y i N { S.K.S.Z o ",
"Q.Q.E.H.) 5 i Y J J ..X.Y m L X.X.U y # z J.n.@ X F P.( $ 6 / m.f.o.H z Z C.{ 5 i h 1 S C.U.Q.U.G + ",
"Q.^./.R.m.l r L m J ..X.Y m L X.X.U y # z J.n.@ X F P.( $ 6 ) C.s.Y y & 8 A.M.- 3 d 9 ( P.!.(.E.! + ",
"Q.^.(.~.F.~ c e y J ..X.Y m L ..X.U y # z J.n.@ X F P.( $ 5 ( S.d.j y @ - A.M.- : u A m.R.(.(.T.! + ",
"I.W./.^.Y.m.M > 7 J ..X.Y m L ..X.U y $ v J.n.@ X F P.( $ 6 ( S.d.Y y # - M.{ & + 9 ' H.!.(.^.P.S O ",
"A.L.E.W.I.V.C % 7 J ..X.Y m L ..X.U y # z J.n.@ X F P.( $ 6 ) C.f.T m 5 8 ] ~ & + 8 | P.R.Q.Y.C.v o ",
"' | V.C.N.] M > 7 J ..X.Y m L X.X.U y # z J.n.@ X F P.( @ 6 W g.j.i.^ S Z ~ S = $ 8 ~ n.V.C.M.( 8 o ",
"l v S S Z v q w y J ..X.Y m L X.X.U y # z J.n.@ X F P.( @ 6 W f.k.B.n.| / v 8 5 1 w b V S S V z & o ",
"$ $ $ $ $ $ 3 i u J ..X.Y m L ..X.U y $ v J.n.@ X S P.' & 5 K =.h.S.A.S.| l * 9 i 4 , $ $ & $ # + o ",
"# # # # @ $ 4 d m J  ...U m L  ...U y # z J.n.@ X S I.N.v 6 i  .f.C.C.C.} q = y d i < # @ # $ # + o ",
"1 1 1 > , 1 i d m J U  .U m J Y  .I y # v L.m.@ X S T.Y.] 0 3 j =.i.` _ Q u 7 y d a 3 > * 1 1 1 # + ",
"i i i w 7 t a d m s f f d x s f f d y # z H.n.@ X C T.!.C.l 1 g U I N L U d t u s a i r 7 e i t : + ",
"i i i w w i i i w w i i t 7 w i i t 5 # l C.( @ X z D.T.C.8 % t i u 9 r i i e 9 e i i r 7 e i t : + ",
"3 3 1 < 5 1 2 1 5 > 1 1 < = < 1 1 1 = + - ~ M + . ; ' n.( - # 1 1 < * < 1 1 1 5 < 1 1 < < 1 3 2 $ + ",
"$ $ $ # # $ $ $ # # $ $ $ # # $ $ # @ O @ 8 - + o # 8 v 0 @ + # $ # @ # $ $ # # # $ $ $ # $ $ $ + o ",
"O O O o o O O O o o O O O o o O O O o o o + + o o o + @ + o o o O O o O O O O o o O O O o O O O o o ",
"o X X X X X X X X X X X X X X X X X . o o .   o o o . . . X o . X X X X X X X X X X X X X X X X o o "
};
