/* XPM */
static char *_e3134a4bf774eb9c854765796fe84af5h1JN9ygDkfgKap2[] = {
/* columns rows colors chars-per-pixel */
"103 50 208 2 ",
"   c #1C080E",
".  c #1C070E",
"X  c #1E0B12",
"o  c #1E0F18",
"O  c #210E14",
"+  c #200F18",
"@  c #241117",
"#  c #24131A",
"$  c #29151C",
"%  c #2D191F",
"&  c #331C1F",
"*  c #371D1E",
"=  c #2D1B22",
"-  c #271820",
";  c #331E22",
":  c #381F20",
">  c #2F2129",
",  c #352026",
"<  c #3C2324",
"1  c #33232A",
"2  c #3C262C",
"3  c #3E292E",
"4  c #3B2D35",
"5  c #382C35",
"6  c #3E333B",
"7  c #3E211F",
"8  c #41231F",
"9  c #432624",
"0  c #442927",
"q  c #4A2A26",
"w  c #432A2D",
"e  c #4B2E2A",
"r  c #442727",
"t  c #512E27",
"y  c #4E312D",
"u  c #53322B",
"i  c #5C382E",
"p  c #5A362C",
"a  c #432D32",
"s  c #453136",
"d  c #4B3234",
"f  c #42353D",
"g  c #4D363B",
"h  c #4F383D",
"j  c #533634",
"k  c #553835",
"l  c #5C3B34",
"z  c #513739",
"x  c #543B3D",
"c  c #5A3E3D",
"v  c #583731",
"b  c #633B2E",
"n  c #643E32",
"m  c #693F32",
"M  c #603F3A",
"N  c #5E413E",
"B  c #654035",
"V  c #6C4234",
"C  c #64423C",
"Z  c #6B463C",
"A  c #6E483C",
"S  c #744334",
"D  c #794535",
"F  c #744B3B",
"G  c #794E3D",
"H  c #714739",
"J  c #7E513F",
"K  c #3E3640",
"L  c #433740",
"P  c #443A43",
"I  c #493F48",
"U  c #493E46",
"Y  c #553D41",
"T  c #593F41",
"R  c #4C444E",
"E  c #46404A",
"W  c #5D4241",
"Q  c #54454B",
"!  c #594548",
"~  c #4D4750",
"^  c #4F4952",
"/  c #524B55",
"(  c #5A4E55",
")  c #524E58",
"_  c #5B535D",
"`  c #56515B",
"'  c #644542",
"]  c #6D4A42",
"[  c #654B4A",
"{  c #724D43",
"}  c #784F41",
"|  c #775044",
" . c #7D5343",
".. c #76544A",
"X. c #66555A",
"o. c #705655",
"O. c #5D5661",
"+. c #5D5A65",
"@. c #635B65",
"#. c #645E69",
"$. c #685C63",
"%. c #65626C",
"&. c #69636D",
"*. c #776669",
"=. c #6B6671",
"-. c #6B6A75",
";. c #6C6E79",
":. c #666671",
">. c #726E79",
",. c #766B73",
"<. c #6E717C",
"1. c #72727D",
"2. c #7A737D",
"3. c #7A605B",
"4. c #82523E",
"5. c #92553E",
"6. c #835643",
"7. c #885641",
"8. c #855845",
"9. c #8C5B45",
"0. c #855C4D",
"q. c #935D46",
"w. c #9A5E45",
"e. c #A15F44",
"r. c #976047",
"t. c #996047",
"y. c #9B6248",
"u. c #956048",
"i. c #8D6452",
"p. c #876558",
"a. c #916753",
"s. c #A76145",
"d. c #A36044",
"f. c #A96245",
"g. c #A56649",
"h. c #A26549",
"j. c #A9674A",
"k. c #AA684A",
"l. c #AD694A",
"z. c #AF6A4C",
"x. c #B66C4C",
"c. c #B36C4B",
"v. c #BA6E4C",
"b. c #BC6F4D",
"n. c #BF704D",
"m. c #846C66",
"M. c #8A716D",
"N. c #957668",
"B. c #957568",
"V. c #897878",
"C. c #937C74",
"Z. c #C1714D",
"A. c #C3724E",
"S. c #C2714E",
"D. c #C5734E",
"F. c #C6744F",
"G. c #C8754F",
"H. c #CA7650",
"J. c #9A8278",
"K. c #737681",
"L. c #757984",
"P. c #7C7986",
"I. c #7B7E8A",
"U. c #7A7682",
"Y. c #6F7480",
"T. c #837D87",
"R. c #7B828D",
"E. c #7E8591",
"W. c #7F8894",
"Q. c #83828D",
"!. c #8B8389",
"~. c #93898C",
"^. c #838692",
"/. c #858A96",
"(. c #8B8A95",
"). c #8B8E9A",
"_. c #868C98",
"`. c #8B929E",
"'. c #87909B",
"]. c #989499",
"[. c #928B92",
"{. c #A29895",
"}. c #8D95A2",
"|. c #8F9AA6",
" X c #9499A6",
".X c #949DAA",
"XX c #9598A5",
"oX c #94A1AE",
"OX c #9BA1AD",
"+X c #96A4B1",
"@X c #9AA6B3",
"#X c #9BA9B6",
"$X c #9DACB9",
"%X c #9FB0BD",
"&X c #A3A1A3",
"*X c #A1ADBB",
"=X c #A3ABB5",
"-X c #A3B1BE",
";X c #A9B3BB",
":X c #A19EA0",
">X c #A5B5C2",
",X c #AAB9C5",
"<X c #AABCCA",
"1X c #A8B8C5",
"2X c #ADC0CE",
"3X c #AEC2D1",
"4X c #B0C6D5",
"5X c #B2C8D7",
/* pixels */
"n.n.Z.Z.n.x.g.q.9.t.l.v.Z.Z.n.x.g.q.9.t.l.v.Z.Z.n.x.g.q.q.t.l.v.Z.Z.n.x.h.q.q.y.l.b.Z.Z.n.x.g.q.9.8.8.9.t.j.v.Z.Z.Z.v.j.r.9.t.j.v.Z.Z.Z.v.g.q.9.t.j.v.Z.Z.Z.x.g.q.9.t.k.v.Z.Z.Z.x.g.q.9.t.k.v.Z.F.Z.s.D q $ o ",
"n.n.Z.Z.n.x.g.q.9.t.l.v.Z.Z.n.x.g.q.9.t.l.v.Z.D.n.x.g.q.q.t.l.v.Z.Z.n.x.h.q.q.y.l.b.Z.Z.n.x.g.q.9.8.8.9.t.j.v.Z.Z.Z.v.j.r.9.t.j.v.Z.Z.Z.v.g.q.9.t.j.v.Z.Z.Z.x.g.q.9.t.k.v.Z.Z.Z.x.g.q.9.t.k.v.Z.F.Z.s.D q $ o ",
"Z.Z.Z.Z.Z.v.g.r.q.y.l.n.Z.D.Z.v.g.q.q.y.l.n.D.D.Z.x.g.q.q.y.l.n.D.D.Z.x.g.q.q.y.c.n.D.D.Z.x.g.q.9.8.9.9.t.l.v.Z.D.Z.v.k.t.q.t.k.v.Z.D.Z.v.k.t.q.t.l.b.Z.D.Z.v.j.r.q.t.l.b.Z.D.Z.v.j.r.q.t.l.b.D.H.Z.f.D q $ o ",
"D.D.F.F.D.v.k.t.q.y.c.Z.F.G.D.v.k.t.q.y.c.Z.F.G.D.v.k.t.q.y.c.Z.F.G.D.v.g.r.q.h.c.Z.F.G.D.v.k.t.9.9.9.q.y.z.n.F.G.F.n.l.t.q.y.l.n.F.G.F.n.l.t.q.y.z.n.F.G.F.n.k.t.q.y.c.n.F.G.F.n.k.t.q.y.z.Z.H.H.F.f.D q $ o ",
"n.n.Z.Z.n.x.g.q.q.t.l.v.Z.Z.n.x.g.q.q.t.l.v.Z.Z.n.x.g.q.q.t.l.b.Z.Z.n.x.h.q.q.y.l.b.Z.Z.n.x.g.q.9.8.8.9.t.k.v.Z.Z.Z.v.j.r.9.t.j.v.Z.Z.Z.v.g.r.9.t.j.v.Z.Z.Z.v.g.q.9.t.k.v.Z.Z.Z.x.g.q.9.t.k.v.Z.F.Z.s.D q $ o ",
"s.s.s.f.s.w.q.6.J 7.w.d.f.f.s.w.q.6.J 7.w.d.f.f.s.w.q.4.J 7.w.s.f.f.s.w.9.4.J 7.w.s.f.f.s.w.q.4.G G G J 6.w.e.f.f.f.e.w.6.J 6.w.e.f.f.f.e.q.6.J 6.w.e.f.f.s.e.q.6.J 6.w.e.f.f.s.e.q.6.J 6.w.d.f.f.s.5.m r $ o ",
"D D D D D S m n l n V S D D D S m n l n V S D D D S m n l n V D D D D S m n l n S D D D S S m n l l l l n m S D D D D V n l n V S D D D S m n l n V S D D D S m n l n V S D D D S m n l n V S D D D m t : $ # ",
"q q q q q r 9 < < 9 r r q q q r 9 < < 9 r r q q q r 9 < < 9 r r q q q r 9 < < 9 0 q q q 9 9 9 < < < < < 9 9 9 q q q q r 9 < < 9 r q q q r 9 < < < 9 r q q q r 9 < < < 9 r q q q r 9 < < 9 9 r q q q 9 : % $ # ",
"& & & & & & % % % % & & & & & & % % % % & & & & & & % % % % & & & & & & % % % $ $ $ = ; 1 1 = % $ $ $ $ = ; 1 1 ; % $ $ % % % & & & & & & & % % % & & & & & & % % % % & & & & & & % % % % & & & & & & % $ # # ",
"0 0 0 0 0 < < , ; , < 9 0 0 0 < < , ; , < 9 0 0 0 < < , ; , < 9 0 0 0 < < , = $ # # > 6 R E 6 = # o o $ > K R E 5 = # # - ; , < 9 0 0 0 9 < , ; , < 9 0 0 0 < < , ; , < 9 0 0 0 < < , ; , < 9 0 0 0 < ; % $ # ",
"B B B B B l j d a d k n B B B l j s a d k n B B B l j s a d k n B B B l j d 3 ; $ - 6 +.Y.;.) 5 # X X - 6 +.K.;.) 1 $ $ 1 a d k n B B B l j d a d k n B B B l j d a d k n B B B l j d a d k n B B B l e ; $ # ",
"6.6.6.6.6.} Z c x N ]  .6.6.6.} Z c x N ]  .6.6.6.} Z c x N {  .6.6.6.} ] c g 2 % = E K..X}.-.6 $   X = R L..X}.:.6 - = 4 g N ] | 6.6.6.| Z c x N ] | 6.6.6.| Z c x N ]  .6.6.6.| Z c x N ]  .6.6.6.H u < $ # ",
"9.9.9.9.9.6.{ W W ' | 8.9.9.9.6.] W W ' | 8.9.9.9.6.] W W ' | 9.9.9.9.6.{ ' h 2 = = ~ R.$X@X1.P $   X = / E.$X@X<.f = ; a x ' | 8.9.9.9.8.{ ' T ' } 8.9.9.9.6.{ ' W ' } 8.9.9.9.6.{ ' W ' | 8.9.q.9.J l < $ + ",
"9.9.9.9.9.6.{ W W ' | 9.9.q.9.6.{ W W ' | 9.9.q.9.6.] W W ' | 9.9.q.9.6.{ ' h 2 = = ^ E.$X@X1.P $ . X = / ^.$X@X<.f = ; a Y ' | 8.9.q.9.8.{ ' W ' | 8.9.q.9.8.{ ' W ' | 8.9.q.9.8.{ ' W ' | 8.9.u.9.J l < $ + ",
"9.9.9.9.9.6.] W T ' } 8.9.9.9.6.] W T ' | 8.9.9.9.6.] W T ' | 8.9.9.9.6.{ W h 2 = = R R.$X+X<.P $   X = ^ E.$XoX;.f = ; a x ' | 6.9.9.9.6.{ ' T ' } 8.9.9.9.6.{ W T ' } 8.9.9.9.6.{ W T ' } 8.9.9.9.G l < $ + ",
"9.9.9.9.9.6.] W T ' } 8.9.9.9. .] W T ' } 8.9.9.9. .] W T ' | 8.9.9.9. .{ W h 2 = = R R.#X+X<.P $   X = ^ R.#XoX;.f = ; a x ' | 8.9.9.9.6.{ ' T ' { 6.9.9.9.6.] W T ' } 8.9.9.9.6.{ W T ' } 8.9.9.9.G l < $ + ",
"7.7.7.7.7. .A N x ' | 8.9.9.9.6.] W T ' } 8.9.9.9. .] W T ' | 8.9.9.9. .{ W h 2 = = R R.#XoX<.P $   X = ^ R.#XoX;.f = ; a Y ' | 8.9.q.9.8.{ ' W ' } 8.9.9.9.6.] W T ' } 8.9.9.9.6.{ N x C F 6.7.9.7.G i < $ # ",
"7.7.7.7.7. .] c Y ' | 8.9.9.9. .] W T ' } 8.9.9.9. .] W T ' | 8.9.9.9. .{ W h 2 = = R R.#XoX<.P $   X = ^ R.#XoX;.f = ; a x ' | 8.9.9.9.8.{ ' T ' } 6.9.9.9.6.] W T ' } 8.9.9.9.6.{ W x C { 6.7.9.7.G i < $ # ",
"i.i.i.i.i.0...[ ! ' {  .6.7.9.6.] W T ' } 8.9.9.9. .] W T ' | 8.9.9.9. .{ W h 2 = = R R.#XoX<.P $   X = ^ R.#XoX;.f - = 3 g N ] | 6.6.6.| Z c x N { 6.9.9.9.6.{ W T ' } 8.9.7.6.| ] ' ! [ ..p.i.a.i. .l < $ @ ",
"C.C.C.C.C.C.m.*.X.[ ' B H J 6.6.{ W T ' } 8.9.9.9. .] W T ' | 8.9.9.9. .{ W h 2 = = R R.#X+X<.P $   X = ^ E.$XoX;.6 $ $ ; w d v l n n n l j w a k A 8.9.9.9.6.{ W T ' | 8.6.G V C ' X.X.*.M.C.J.J.C.m.[ a $ o ",
"&X&X&X&X:X].[.T.,.X.x e u V 6.6.{ W T ' } 8.9.9.9. .] W T ' | 8.9.9.9. .{ W h 2 = = ~ R.$X+X<.P $   X = / E.$XoX;.6 # O $ ; ; < 9 9 9 9 9 ; ; ; e Z 6.9.q.9.6.{ W Y ' | 8.J n u d ! $.2.!.].].&X&X&X~.$.f % X ",
"1X1X,X,X,X;X#XXXQ.&.U 2 0 n G  .] W T ' } 8.9.9.9. .] W T ' | 8.9.9.9. .{ W h 2 = = R I.#XoX<.L $   X = ^ R.#XoX<.P - # $ = = ; ; ; ; ; ; = - , e C  .9.9.9.6.{ W Y ' }  .H u < 4 / >.(..X=X>X,X<X,X.X;.P - X ",
",X,X<X3X3X3X,X*X XL.O.P g k Z Z C c T ' | 8.9.9.9. .] W T ' | 8.9.9.9. .{ W h 2 = = R L.oX X-.f $   X = R L.oX.XL.) f 4 4 f f P U I I U U U U U Q C A G 4.6.6.{ ' Y c C Z C k f E %.^.OX;X<X3X3X4X<XoX;.P - X ",
"*X*X>X<X4X5X3X<X*X}.L.%.( Y j y d z Y ' | 8.9.9.9. .] W T ' | 8.9.9.9. .{ W h 2 = = U 1.`.).%.6 $ X X = I 1.}. XQ.=.@.O.@.#.&.;.K.L.L.L.K.K.K.;.#.! k l H 6.6.} ' x g d y k ! _ -.E..X>X2X4X5X4X3X>X}.=.P - X ",
"XX X@X-X<X3X3X<X>X@X}.T.&.Q 3 < 2 d Y ' | 8.9.9.9. .] W T ' | 8.9.9.9. .{ W h 2 = = P =.^.Q.@.4 $ X O - P =./.XX).^.T.P.I.Q./.}.oX@X@X@X@X#X#X.XL.( a 0 b G 6.| ' x a 2 < s ( >.^. X*X,X2X3X2X,X;XOX^.@.6 % X ",
"P.T.^.}..X@X#X@XoX X).I.&.Q 3 < 2 d Y ' | 8.9.9.9. .] W T ' | 8.9.9.9. .{ W h 2 = = L &.Q.P.O.4 $ X O - L #.Q.XX XXXXX).^.Q./.}.oX@X@X@X#X>X<X>X/.` 1 * u G 6.| ' x a 2 < s ( >.Q.`..X@X#X#X@X.X}.^.>./ 4 $ O ",
"_ O.@.:.;.<.K.1.<.;.:.@.( ! j y d z Y ' | 8.9.9.9. .] W T ' | 8.9.9.9. .{ W h 2 = = f %.T.L._ 4 $ X O - f #.Q.XX=X*X@X).1.%.%.;.K.L.K.K.R..X>X>X'.) > & u G 8.| ' x g d y z Q _ #.=.;.<.K.<.<.-.:.+./ f 1 $ @ ",
"4 6 6 f P U U U U P 6 f g c Z Z C c T ' | 8.9.9.9. .] W T ' | 8.9.9.9. .{ W h 2 = = L %.T.P.O.4 $ X O - f #.Q. X*X1X$X^.+.P 6 f U U P U ) L.@X-X'.` 1 * u G 6.| ' Y c C Z C x f 6 6 P U U U P P f 6 5 1 - $ # ",
"; ; ; ; ; ; ; = = = = ; e n G  .] W T ' } 8.9.9.9. .] W T ' | 8.9.9.9. .{ W h 2 = = P &.^.I.@.4 $ X O - P %.^..X*X*X.XK.R 1 $ $ - - - > P -.|.$X}.+.6 w l F | ] W T ' }  .F l 2 ; = = = = ; ; ; ; ; = % $ # # ",
"9 9 9 9 8 7 * & & ; < 0 p H 6.6.{ W T ' } 8.9.9.9. .] W T ' | 8.9.9.9. .{ W h 2 = = U ;.)./.%.6 $ X X - U -.`..X.X'.L.@.P , $ O O # = 6 / K.+X>X@XR.+.( W B n k x T ' | 8.J V u 9 : ; & & * 8 9 9 9 < * % $ # ",
"b b b b b p u w w e v B H J 8.6.{ W T ' } 8.9.9.9. .] W T ' | 8.9.9.9. .{ W h 2 = = E K..X}.-.6 $   X = R K..XoX^.&.) U f 4 ; $ O = f _ 1.`.$X<X1X@X'.1._ g 0 e g Y ' | 8.6.G Z n j w w e u i b b b p 0 * $ # ",
"6.6.8.8.6.| ] W Y N ] | 6.8.9.6.] W T ' } 8.9.9.9. .] W T ' | 8.9.9.9. .{ W h 2 = = R I.@X.X;.f $   X = ~ R.@XoX1.E 1 2 a g a , = 4 ( 1.(.OX-X1X<X1X#X'.%.f 1 2 a x ' } 6.9.6.6.} Z T Y W ]  .8.8.8.F v < $ + ",
"B.B.B.B.B.M.*.o.X.[ ] F G 6.8.6.] W T ' } 8.9.9.9. .] W T ' | 8.9.9.9. .{ W h 2 = = R R.#X+X<.P $   X = ^ E.$XoX;.6 $ ; a h h f f R $.V.~.].XX.XoXoX|.E.:.) P f f g c F 6.8.4.G A ] [ X.3.m.B.B.N.B.p.' w $ o ",
"{.{.{.{.{.[.!.V.*.X.W v b F 6.6.{ W T ' } 8.9.9.9. .] W T ' | 8.9.9.9. .{ W h 2 = = ~ R.$X+X<.P $   X = / E.$XoX-.6 $ & a Y Q ( @.$.*.M.C.V.V.2.1.-.=.-.;.<.:.` P a j A 6.6.V i k ! $.,.T.~.].{.{.{.!.X.s % o ",
";X;X;X;X;X=XOX`.T.#.U 2 q n J 6.{ W T ' } 8.9.9.9. .] W T ' | 8.9.9.9. .{ W h 2 = = R R.#XoX<.P $   X = ^ R.$XoX;.6 % ; a Y X.=.U.T.M.p.p.3.o.( Q f f / <.`.`.;.U 1 q V  .G i 0 a Q =.Q.XXOX=X;X,X;XXX=.P - X ",
",X,X<X2X2X<X>X@X`.>./ f a k A F Z T T ' | 8.9.9.9. .] W T ' | 8.9.9.9. .{ W h 2 = = R R.#XoX<.P $   X = ^ R.#XoX;.f = ; w Y X.2.(.~.C.p.6.{ ' x 3 = - P ;..X+XL.E ; < p A Z v a L O.P.XX=X1X<X3X4X<XoX;.P - X ",
">X>X,X3X4X4X3X,X@X'.;._ Q x k k k x Y ' | 8.9.9.9. .] W T ' | 8.9.9.9. .{ W h 2 = = R R.#XoX<.P $   X = ^ R.#XoX;.f = ; w Y $.P.).[.C.i.4.H c d < $ @ 6 =. X.XK.U = % 9 u c ! / @.L.}.*X<X4X4X5X4X,X X-.P - X ",
".X@X=X>X2X4X4X2X>X@X).U.#.Q a 2 w g Y ' | 8.9.9.9. .] W T ' | 8.9.9.9. .{ W h 2 = = R R.#XoX<.P $   X = ^ R.#XoX;.f = ; w Y $.U.(.[.C.i.6.F C g 2 % $ 4 #./.).-.P % @ % < g ( =.I.}.$X,X3X4X4X2X,X#X_.#.f % X ",
"^.(.`..X$X>X>X>X$X@XXXQ.=.Q 2 ; 2 d Y ' | 8.9.9.9. .] W T ' | 8.9.9.9. .] W h 2 = = R R.#XoX<.P $   X = ^ R.#XoX;.6 = ; w Y X.2.!.!.C.p.0...[ ! f 2 1 f +.U.L.@.f = @ @ & s _ 1.(. X@X*X>X>X-X#X.X).U._ 4 $ o ",
"&.=.-.K.I.E.W.E.E.I.K.-.X.Y w < w g Y ' | 8.9.9.9. .] W T ' | 8.9.9.9.6.{ W h 2 = = R R.#XoX<.P $   X = ^ R.#XoX-.6 $ % a Y X.*.V.C.C.M.m.*.*.$._ / R / _ #.@./ f 1 ; * < s Q #.>.L.R.E.W.E.E.I.K.-.O.U 1 $ O ",
"P U I R ^ ) ) ) ) ^ R E U k v u j z Y ' | 8.9.9.9.6.] W T ' | 8.9.9.9.6.{ W h 2 = = R R.#XoX<.P $   X = ^ R.#X.X-.6 $ % a Y [ 3.m.M.C.C.T.T.T.U.2.>.-.#._ R P f s a e y u j h U E ~ / ) ) ) ) ^ R I f 5 = $ # ",
"; ; , 1 1 1 1 1 1 1 ; , w u n B M x T ' } 8.9.9.9. .] W T ' } 8.9.9.9. .{ W h 2 = = R R.#XoX<.P $   X = ^ R.$XoX<.P = ; a x ' | 0.p.C.!.(.(.(.(.(.(.Q.>.( 6 1 2 a g c B B i y 2 , , 1 1 1 1 1 1 1 , = - $ # # ",
"* * * * * * & % % % & * 0 p V Z C c T ' } 6.6.7.6.| ] W T ' } 6.6.7.6. .] W h 2 = = ~ R.$X@X<.P $   X = ^ R.$X$XE.+.I f s g k Z  .0.m.V.!.!.Q.T.!.!.!.,.( a < r d x ' Z V m u 9 * & % % & & * * * * * % $ # # ",
"e e e e e q 0 2 2 r 0 e p m H H Z W T ' F J 4.4.J G ] W T ' F J 4.4.J G ] W h 2 = = ^ E.$X@X1.P $ . X = ^ R.-X,X#X/.<._ P a e n F 6.p.m.m.*.*.*.,.m.m.3.] l u d z Y ' Z H V b u e e 2 2 r 0 e e t e q < % $ # ",
"n n n n n n k j g j l n V V H Z C c x N Z H F G F Z C c x N Z H F G F H Z c g 2 = = R R.#X+X<.P $   X = R I.$X2X<X$X}.;.I 1 < u V G | | ..[ [ ( [ { | } H V n l x x c C V H V V n k j g j k n n V n i q * $ # ",
"n n n n n n k z g k k n n m n n k j g k l n n n n n k z g k l n n n n n k z s 2 % = U ;.`./.%.6 $ X X - U ;.}.#X%X#X`.-.P = * q i B V n n k z g j k n n n n n k z g z k n n m n n k z g z l n B V n i q ; $ # ",
"u u u u u y e w w w e u u u e e w w w w e e e e e e e w 3 w e e e e e e e w 2 ; $ - 4 ) &.%.R 1 $ O O % 4 ) :.1.L.L.-.) 4 % % < q e t e q e 2 2 r e q e t t e e w 3 w e e u u u y e w w w e y u u u e < % $ # ",
"< < < < < , ; ; ; ; ; < < < ; ; ; ; ; ; ; ; ; ; ; ; ; ; ; ; ; ; ; ; ; ; ; ; ; % $ $ = 4 f 6 5 = # @ # $ = 4 L U E I P 4 = $ $ % * * * * * ; ; ; ; ; ; ; ; ; , ; ; ; ; ; ; < < < , ; ; ; ; ; < < < < ; % $ # # ",
"$ $ $ $ $ $ $ $ # $ $ $ $ $ $ $ $ $ # $ $ $ $ $ $ $ $ $ $ $ $ $ $ $ $ $ $ $ $ $ # # $ $ - % $ $ # # # # $ $ - - - - - $ $ # # $ $ $ $ $ $ $ $ # $ $ $ $ $ $ $ $ $ $ $ $ $ $ $ $ $ $ $ $ $ $ $ $ $ $ $ $ # # # ",
"# # # # # # @ @ # # # + # # # # # # # # # + # + # # # # # # # + # # # # # # # # # # @ O X X O # # $ # # @ O X X X X X O @ # # # # # # # + # # # # # # + # # # # # # @ @ + + # # # # # # # # + + # # # # # # # "
};
