/* XPM */
static char *a3f73adaf0034ae5eaf225058f4d4f62OSdwE8y0tuavmiQR[] = {
/* columns rows colors chars-per-pixel */
"50 50 182 2 ",
"   c #141F1B",
".  c #15231C",
"X  c #1A241E",
"o  c #18291F",
"O  c #151E27",
"+  c #1C1E25",
"@  c #1E1E29",
"#  c #231B26",
"$  c #221E2D",
"%  c #261F31",
"&  c #281F33",
"*  c #172221",
"=  c #1B2426",
"-  c #162925",
";  c #1D2A24",
":  c #1D242A",
">  c #1D2A2A",
",  c #1C312B",
"<  c #202526",
"1  c #23222E",
"2  c #29222D",
"3  c #232A2C",
"4  c #23322C",
"5  c #243A2F",
"6  c #252331",
"7  c #292433",
"8  c #242A32",
"9  c #2B2A35",
"0  c #2E2C39",
"q  c #302E3B",
"w  c #243331",
"e  c #2B3035",
"r  c #273D30",
"t  c #273538",
"y  c #2C393A",
"u  c #33313E",
"i  c #364C3E",
"p  c #353340",
"a  c #373C40",
"s  c #364444",
"d  c #394545",
"f  c #3B4B45",
"g  c #3C4449",
"h  c #364848",
"j  c #3D4A49",
"k  c #3B5041",
"l  c #3C524C",
"z  c #3E5050",
"x  c #414D46",
"c  c #40434A",
"v  c #424B4B",
"b  c #484C4F",
"n  c #44564B",
"m  c #4A564C",
"M  c #4D5A4F",
"N  c #444D53",
"B  c #445453",
"V  c #495656",
"C  c #445953",
"Z  c #495B52",
"A  c #4A5758",
"S  c #4C5A5C",
"D  c #545D5C",
"F  c #4C634F",
"G  c #476253",
"H  c #4E6054",
"J  c #4D6B55",
"K  c #476758",
"L  c #4C665D",
"P  c #4D6D5D",
"I  c #506256",
"U  c #53645A",
"Y  c #536D5E",
"T  c #4C715D",
"R  c #54735D",
"E  c #5F7E5E",
"W  c #4E6761",
"Q  c #4E6D61",
"!  c #546564",
"~  c #596466",
"^  c #546C63",
"/  c #596B64",
"(  c #566568",
")  c #59656A",
"_  c #566B68",
"`  c #5A6B6A",
"'  c #4E7162",
"]  c #537163",
"[  c #5B7464",
"{  c #577960",
"}  c #5D7C64",
"|  c #557469",
" . c #5D726A",
".. c #5F7F6A",
"X. c #5F6D71",
"o. c #62676A",
"O. c #616E6B",
"+. c #657466",
"@. c #627D66",
"#. c #63746C",
"$. c #677F6C",
"%. c #667E6E",
"&. c #647F6C",
"*. c #647D6A",
"=. c #687969",
"-. c #697B6B",
";. c #687F6B",
":. c #6B796C",
">. c #6A7A6D",
",. c #6B786E",
"<. c #687D6C",
"1. c #6B7C6C",
"2. c #697E6D",
"3. c #6A7F6E",
"4. c #6E7C6D",
"5. c #6D7F6F",
"6. c #697B6E",
"7. c #616B71",
"8. c #6B7573",
"9. c #667973",
"0. c #677D70",
"q. c #667B70",
"w. c #697F73",
"e. c #6A7B75",
"r. c #697E75",
"t. c #6A7D77",
"y. c #6B7B72",
"u. c #6F7478",
"i. c #6E7A78",
"p. c #717E76",
"a. c #727D79",
"s. c #5F8264",
"d. c #5F8166",
"f. c #5F8065",
"g. c #5F8169",
"h. c #628162",
"j. c #638262",
"k. c #648361",
"l. c #648163",
"z. c #608164",
"x. c #638064",
"c. c #618265",
"v. c #608166",
"b. c #628066",
"n. c #638167",
"m. c #618267",
"M. c #648165",
"N. c #668065",
"B. c #658264",
"V. c #648067",
"C. c #668067",
"Z. c #678166",
"A. c #628166",
"S. c #608068",
"D. c #628068",
"F. c #61816A",
"G. c #61836A",
"H. c #648069",
"J. c #658168",
"K. c #65816A",
"L. c #64806A",
"P. c #67806A",
"I. c #64826A",
"U. c #65836B",
"Y. c #66826B",
"T. c #62846B",
"R. c #668468",
"E. c #66846A",
"W. c #66836D",
"Q. c #64816A",
"!. c #68816B",
"~. c #68816C",
"^. c #6E816E",
"/. c #68846D",
"(. c #6B846F",
"). c #69826E",
"_. c #698070",
"`. c #6E8070",
"'. c #6A8074",
"]. c #6B8172",
"[. c #738174",
"{. c #748178",
/* pixels */
"_ _ _ _ ) _ _ _ ( ! #.w.;.V.h.k.@.@.b.b.@.@.@.@.*.*.*.@.@.@.@.h.@.@.@.b.V.b.h.f.} b.T.g.} R R J P P ",
"C V V V V V A V S V ` '.;.@.h.E V.k.b.b.@.V.H.H.*.*.*.*.@.@.@.@.@.V.V.@.} } b.f.b.} } D.} R Y R R R ",
"= : : : : > > : = > B #.@.H.E.h.k.b.@.@.@.;.;.H.;.;.;.;.;.;.@.@.@.V.H.@.@.b.H.b.H.f.@.H.H.@.@.L.@.} ",
": : < : : : : : > = B r.$.*.b.} @.@.V.V.;.;.;.@.;.;.;.;.;.;.;.;.*.@.*.*.H.H.@.@.@.H.H.@.@.*.H.@.H.H.",
"< : : < < < < : 8 = B r.0.@.H.E.@.V.H.!.!.H.;.;.;.;.;.;.;.;.;.*.L.*.*.H.$.@.@.@.@.!.!.@.@.!.H.@.@.@.",
"< < < < < < < > : = B e.r.&.@.@.V.V.;.@.@.;.;.;.;.;.;.;.;.;.;.*.D...*.$.;.-.;.^.-.=.=.;.;.;.@.;.;.;.",
"< : : < < : : > = 3 B #.9.w._.;.@.@.@.@.@.@.@.@.*.*.*.*.@.@.@.b.} g.D.*.;.<.<.=.[.5.-.-.<.;.;.$.H.H.",
"s s s d d s s d s s B C B Z Z n @.@.@.H.H.H.*.@.*.*.@.@.@.@.b.f.} D.*.} $.^.+.M m M m m H / #.[ { { ",
"( ( ( ( _ / / _ ( _ d = = > 3 ; F /.} @.H.@.@.@.b.b.b.b.D.D.D.D.f.f.D.;.-.5.6.; X 4 ; ; 4 ^ ^ ^ Y P ",
"^ ^ ^ ^ ^ ^ _ / _ _ d : : : < ; Z ~.@.;.!.H.;.@.@.@.@.@.@.@.*.@.b.} H./.<.6.6.; X :   * 4 ! ! ^ Y P ",
"Q Q Q Q Y Y ^ ^ _ / s > : < < < H _.;.;.-.;.;.;.H.H.H.H.H.H.L.H.D.} @.;.6.6.y.X 3 < * > > _ _ ^ P P ",
"P P P P P P Y Y ! ! s : 3 < < 3 U w.6.6.-.<.<.-.;.;.;.;.$.$.$.$.~.~.~.-.y.{.a.. : < * ; - ` _ P P P ",
"P P P P T T Y Y ^ ^ s : 1 1 1 1 D 8.y.i.y.p.9.6.6.6.6.6.9.9.9.9.#.%.6.#.9.8.#.3 * > ; > ; ^ ^ Y P P ",
"[ { { { { { { [  . .j 3 3 1 1 1 a v v v d x j j x x x x x x j j j j j j v d x j j f f l f  .[ } { { ",
"*.*.@.f.b.b.D.$.%.6.v > : 6 1 $ 6 3 < < + < : < : : : : = = = = > > = = > = > ! ` / / ^ Y _.@.H.*.D.",
"*.@.@.@.b.b.H.$.w.9.v 3 1 6 6 1 $ < < 1 < 3 : < < < < < : : : : = 3 : : 8 = = ` ( _ / U Y /.;.@.D.D.",
"@.D.D.b.b.H.;.%.y.i.b < 1 6 $ 7 $ @ < 1 < 1 1 : < < 1 < < < < < @ 1 1 3 6 : = X._ ! ^ ^ Y @.;./.b.b.",
"D.D.} } b.@.@.w.8.8.b 1 $ 6 $ 6 3 3 3 3 : 3 3 : : : 3 < 3 < 3 3 9 < 1 $ 6 6 8 ! ( ( _ / Y ~.;.@.@.@.",
"H.H.} @.H.J k n v b u 1 6 7 1 : s s j j s j j h s s s s d d j j g 1 1 @ 1 3 6 g j j s f f $.$.;.H.b.",
"L.D.} @.;.i . ; < 3 1 $ 1 7 1 : C L _ _ _ ^ ^ ^ ^ ^ ^ ^ _ _ _ _ ~ 8 8 : 1 : 1 3 > 3 = * ; 6.<.~.} } ",
"L.L.*.*.w.i . : < 1 $ $ $ 1 3 = V W | ] ] ] Q Q Q Q Q W W W Q ^ O.: 3 : 6 : 6 @ : 3 : : 3 y.9.-.H.H.",
"$.0.0.$.'.j : 3 1 6 6 6 6 3 < = C P ^ L P Q L Q ' ' ' ' Q Q ^ ^ ` = = > 8 1 6 1 1 6 3 < 3 a.y.%.@.@.",
"&.0.r.9.i.g : < $ 6 6 6 9 3 : > C ^ ^ P ^ ] ^ ] P P P P Q Q ^ ! _ > > = > : 6 6 $ $ < : 3 i.i.9.<.$.",
"9.9.r.#.8.g 1 6 9 9 % 1 1 : * > n ^ ^ P ^ ] P P P P ^ ^ ^ ^ ^ ^ L , > > = > 1 6 1 $ 6 1 8 u.i.i.9.6.",
"s s d j s e 1 @ % % % 6 1 < : > B ^ ^ ^ ^ P ] P P P ^ ] ^ Q ^ ^ L l l C N N N 1 6 6 6 + 8 g j s s d ",
": = = : < < 1 7 6 & 6 6 6 3 > > l _ _ ^ ^ ^ ^ P L P P P Q L W Q ] L ^ ^ ` ( ) 8 6 $ 1 1 1 3 : : : : ",
"< : : : : : $ 6 6 6 6 6 1 1 : > B ` _ ^ W ] K ' T T ' ' ' T Q ] P Q | W ` ( 7.: 6 @ 6 6 1 3 : 3 1 1 ",
"3 < 3 3 1 < 1 1 6 6 % $ 1 1 : : z _ _ ^ Q | P ' P T T T T P P P K ] ^ L _ ( X.O 6 6 7 $ @ 1 1 1 < < ",
"1 < < < < < 1 7 1 $ $ $ 1 1 3 > A _ _ ! P ^ P T T T T T T P T T ] | ^ ! ! _ X.8 : 6 6 @ < 7 1 + 1 6 ",
"7 7 1 1 1 < < 1 1 1 % % 6 6 6 3 N ! _  . .P ] K P T P P P P P P ] G Y  .` _ S 8 > : 1 1 7 9 1 2 1 1 ",
"$ $ 1 1 1 1 < < 1 1 6 6 6 6 6 6 e y w 4 5 5 [ *.@.@.*.} @.;.;.-.-.r w , w y t > 8 1 1 1 1 1 # 2 1 1 ",
"7 6 1 1 < 1 1 1 1 1 1 6 6 6 1 1 @ < : : ; o / @.@.@.@.@.@.!.<.;.y.o > * > > : : 6 1 6 6 6 7 2 2 1 1 ",
"6 6 1 6 1 1 1 1 1 1 1 1 1 6 6 7 6 1 1 < > *  .%.~.;.;.H.H.;.;.;.i.3 : : = 3 6 1 1 6 6 6 6 6 6 6 1 1 ",
"6 6 1 6 6 6 1 1 6 6 6 1 1 1 1 1 7 6 $ + : ; O.%.<.;.;.;.;.;.;.%.8.3 < 3 1 1 6 6 6 6 6 6 6 6 6 6 1 1 ",
"1 1 1 1 1 1 1 1 1 1 1 1 1 1 1 1 $ 1 7 3 < > / 9.w.$.%.$.<.$.$.9.a.8 : < 3 6 6 1 6 6 6 6 6 6 6 6 6 6 ",
"$ 1 1 1 1 6 6 6 6 6 1 1 1 6 6 6 6 6 6 < < 8 / p.i.y.9.9.w.9.y.i.o.8 : : 6 6 6 1 6 6 6 6 6 1 1 6 6 6 ",
"1 1 1 1 6 9 0 0 0 0 7 1 1 1 6 1 1 $ 1 1 1 + 3 : 3 ; ; ; > > < 3 u + 9 1 1 1 6 6 6 6 6 6 6 1 1 1 1 6 ",
"1 1 1 1 6 0 u u u q 9 1 1 6 6 1 7 $ 1 $ 1 < 3 < < < < < < : < 3 + + 9 1 1 1 6 1 6 6 6 1 1 1 1 1 1 1 ",
"1 1 1 $ 6 0 u u u q 9 1 1 6 6 1 $ $ 9 6 6 1 1 3 < < 1 1 6 1 1 6 6 1 6 $ 6 6 6 $ 6 6 6 1 1 1 1 1 1 1 ",
"1 6 1 1 6 0 u q u q 9 1 1 6 1 $ 6 $ 6 $ 1 1 1 1 < 1 1 6 6 $ % 6 1 1 7 1 7 6 6 $ 6 6 1 1 1 1 1 1 1 1 ",
"1 1 1 1 6 9 q u q 0 9 7 6 6 6 6 6 $ 1 $ 1 6 1 6 6 % $ % 6 6 & % 1 1 1 1 6 6 6 6 1 1 1 1 1 1 1 1 1 1 ",
"q q q 0 9 7 6 1 6 7 9 0 0 0 0 0 7 1 6 1 1 6 1 1 6 % % % 7 7 & % 6 1 1 1 6 6 6 6 1 1 1 1 1 1 1 1 1 1 ",
"q q u u q 9 6 1 1 6 9 q u p u u 7 6 6 1 1 7 1 6 6 & % % & 6 & % 6 6 1 1 1 1 1 1 1 1 1 1 1 1 1 1 1 1 ",
"q u u u q 9 6 1 1 6 9 q u u u q 7 1 6 $ 1 6 1 6 6 6 $ $ 6 6 6 $ 6 6 1 1 1 1 1 1 1 1 1 1 1 1 1 1 1 1 ",
"q u u u q 9 6 1 1 6 9 q u u q q 7 1 6 1 1 6 1 6 1 1 1 1 6 6 6 1 6 1 1 1 1 1 1 1 1 1 1 1 1 1 6 6 6 1 ",
"q u u u q 0 6 1 1 6 9 q u p u u 7 6 6 1 1 6 1 1 1 1 1 1 1 1 1 1 1 1 1 1 1 1 1 1 1 1 1 1 1 1 6 6 6 6 ",
"u q q 0 0 7 6 1 7 7 9 0 q q q 0 7 1 6 1 1 6 1 1 1 1 1 1 1 < 1 1 1 1 1 1 1 1 6 6 1 1 1 1 6 6 6 6 6 6 ",
"1 1 1 6 7 9 q u 0 9 7 6 6 6 6 6 6 $ 1 $ 1 6 1 6 1 1 1 1 1 < 1 1 1 1 1 1 1 1 1 6 1 1 1 1 6 6 6 6 6 1 ",
"1 1 1 1 6 9 q u u q 9 1 1 6 1 6 1 1 6 1 1 6 1 1 1 1 1 1 1 1 1 1 1 1 1 1 1 1 1 1 6 6 6 1 1 1 1 1 1 1 ",
"1 6 6 1 6 9 q u u q 9 1 1 6 1 6 1 1 6 1 1 6 1 1 1 1 1 1 1 1 1 1 1 1 1 1 1 1 1 1 6 6 1 1 1 1 1 1 1 1 "
};
