/* XPM */
static char *_1a86d4d91584c6eb7ac358485943341qLz1rStD0X6EtQzs[] = {
/* columns rows colors chars-per-pixel */
"50 50 5 1 ",
"  c black",
". c #211D25",
"X c #625E80",
"o c #2E2732",
"O c white",
/* pixels */
"                                        ......    ",
"                                        ......    ",
"                                        ......    ",
"                                     ......       ",
"                                     ......       ",
"                                     ......       ",
"                                  ......          ",
"                                  ......          ",
"                                  ......          ",
"                   ......   ......                ",
"                   ......   ......                ",
"                   ......   ......                ",
"             ...............      ......          ",
"             ...............      ......          ",
"             ...............      ......          ",
" ....................................             ",
" ....................................             ",
" ....................................             ",
" ..............................                  .",
" ..............................                  .",
" ..............................                  .",
" ..................   ...                     ....",
" ..................   ...                     ....",
" ..................   ...                     ....",
" ...............   ......               ......... ",
" ...............   ......               ......... ",
" ...............   ......               ......... ",
" ...............            XXX         ......    ",
" ...............            XXX         ......    ",
" ...............            XXX         ......    ",
"    .........               XXX         ......    ",
"    .........               XXX         ......    ",
"    .........               XXX         ......    ",
"                            XXX                   ",
"                            XXX                   ",
"                            XXX                   ",
"                            XXX                   ",
"                            XXX                   ",
"                            XXX                   ",
"                                                  ",
"                                                  ",
"                                                  ",
"    ooo                                           ",
"    ooo                                           ",
"    ooo                                           ",
"    ooo                                           ",
"    ooo                                           ",
"    ooo                                           ",
"                                                  ",
"                                                  "
};
