/* XPM */
static char *_6980b53c2a94f1af7d516e14d187f1dHyTrAguYTCpRGelg[] = {
/* columns rows colors chars-per-pixel */
"50 50 90 1 ",
"  c #000000",
". c #060609",
"X c #08070B",
"o c #0C0C0D",
"O c #0D0B12",
"+ c #100F13",
"@ c #120F19",
"# c #131313",
"$ c #15131A",
"% c #19171C",
"& c #1C1B1C",
"* c #171320",
"= c #1A1624",
"- c #1E1B26",
"; c #1E1929",
": c #211D25",
"> c #211C2E",
", c #241E31",
"< c #232323",
"1 c #242229",
"2 c #29252D",
"3 c #2C2C2C",
"4 c #272135",
"5 c #2D2633",
"6 c #2E2B31",
"7 c #2B243A",
"8 c #312E35",
"9 c #343334",
"0 c #353339",
"q c #38353A",
"w c #3C3C3C",
"e c #2E2740",
"r c #2F2840",
"t c #322B44",
"y c #362E4B",
"u c #3E3C41",
"i c #39304E",
"p c #3E3A4B",
"a c #3C3352",
"s c #403E43",
"d c #444444",
"f c #474449",
"g c #49474B",
"h c #4A4A4B",
"j c #474450",
"k c #4F4C53",
"l c #494359",
"z c #514B5F",
"x c #535354",
"c c #54525A",
"v c #59565C",
"b c #5B5B5C",
"n c #5E5D61",
"m c #646464",
"M c #656369",
"N c #68676A",
"B c #6B6B6C",
"V c #6E6C70",
"C c #727172",
"Z c #727174",
"A c #767676",
"S c gray48",
"D c #7C7C7C",
"F c #828183",
"G c #898989",
"H c gray55",
"J c #929192",
"K c #939394",
"L c gray60",
"P c #A7A7A7",
"I c #A7A7A8",
"U c #AAAAAA",
"Y c #AEAEAE",
"T c gray69",
"R c #B7B7B7",
"E c #BBBBBB",
"W c gray75",
"Q c #C0C0C0",
"! c #D2D2D2",
"~ c #D8D8D8",
"^ c #DDDDDD",
"/ c gray88",
"( c #E7E7E7",
") c #E9E9E9",
"_ c #ECECEC",
"` c #F3F3F3",
"' c gray96",
"] c #FBFBFB",
"[ c gray99",
"{ c #FDFDFD",
/* pixels */
"                                        ::::::    ",
"                                        ::::::    ",
"                                        ::::::    ",
"                     oo      #       ::::::       ",
"                    #b1#    q2<      ::::::       ",
"                   .mh&h9. qhobf     ::::::       ",
"                  #b&. <g%<<o #vd.::::::          ",
"                 %bxDw%q#  1xohvmB8:::::          ",
"                 <f2&&#%    boo<qAq1::::          ",
"                 &f3s9%u:  oNoq9qF%               ",
"                 %f3d0&s:  %Bos6qF%               ",
"                 %f3kg&s1. &Cog6qF%               ",
"             :::18h3Vb&s::19Noq%qAq:::::          ",
"             :::1fh3WC3VvbvNBobwqB8:::::          ",
"             ::8Bx&2)!Jhqqqw1oWDqB8:::::          ",
" :::::::::::::2NLm<2_]!bhhhhhb^UmLV2:             ",
" :::::::::::::8sdWSq/]{]]]]]]]{{Qsd0:             ",
" :::::::::::::8swQ~UxY{{{{{{{{{{Qwd0:             ",
" :::::::::::::8swQ{(NR{{{{{{{{{{Qwq%             :",
" :::::::::::::8uwQ{{']{{{{{{{{{{Qw9%             :",
" :::::::::::::8uwQ{{{]```'{{{{'`Ew9#             :",
" :::::::::::::8uwQ{{{TCCZP_{{'GCb13#          ::::",
" :::::::::::::8wwQ{{{Aooom/{{_9oo%3o          ::::",
" :::::::::::::8uwQ{{{C   n/{{_2  %3o          ::::",
" :::::::::::::8swQ{{{C   b/{{_1  %3#    ::::::::: ",
" :::::::::::::8swQ{{{LfffH){{`mfq&9#    ::::::::: ",
" :::::::::::::8fhR`{{]''']{{{{')Yh9o    ::::::::: ",
" :::::::::::::2BJmI`''''''''''`UmDq.    ::::::    ",
" :::::::::::::2xZjMJJJJJJJJJKKJSbdo     ::::::    ",
" :::::::::::::6xxzp1o$%#$$#%$o-nB#      ::::::    ",
"    ::::::::: .3mupl.;4O>>O4;.70dw.     ::::::    ",
"    :::::::::  .1vct7>;4>>4;,7;Oqmo     ::::::    ",
"    :::::::::    <h+t>=7;;7=>t$oqmo     ::::::    ",
"                 <ho.4t@77@t4oy,qN#               ",
"                oqurt>;7>>7;O.a4qN#               ",
"                <#*tt>=7>>7o .7=qN#               ",
"                1%XOO4r$4,o   . qm+               ",
"                1%=er>;7>O      qN#               ",
"                1%$,4,4a=       qB#               ",
"                2%o$$4yt$     OXqC%               ",
"                9<;yi>OO.    .r>qmo               ",
"                d2O*=o        *cA3                ",
"    555        ob9%99% .&93o  3mq                 ",
"    555        .vqd<2b.%f3h<.%x%                  ",
"    555         2m9. fx3w#<%fb                    ",
"    555          .  ..2dd%23xo                    ",
"    555               o&# .%o                     ",
"    555                                           ",
"                                                  ",
"                                                  "
};
