/* XPM */
static char *_ec11557b30b470ee333d4c8db302128zlthFXCmCxtMXW5D[] = {
/* columns rows colors chars-per-pixel */
"50 50 5 1 ",
"  c black",
". c #3A3346",
"X c #2E2732",
"o c #483E62",
"O c white",
/* pixels */
"        ...XXXXXX                  XXXXXX...   XXX",
"..ooo...ooooooXXXXXXXXXoooooooooXXXXXXXXX...oooooo",
"..ooo...ooooooXXXXXXXXXoooooooooXXXXXXXXX...oooooo",
"..ooo...ooooooXXXXXXXXXoooooooooXXXXXXXXX...oooooo",
"..XXX   ............      XXX......      XXXXXXXXX",
"..XXX   ............      XXX......      XXXXXXXXX",
"..XXX   ............      XXX......      XXXXXXXXX",
"ooXXX   XXX......XXXXXX   XXXXXXXXX   oooooooooXXX",
"ooXXX   XXX......XXXXXX   XXXXXXXXX   oooooooooXXX",
"ooXXX   XXX......XXXXXX   XXXXXXXXX   oooooooooXXX",
"XXXXX   XXXXXXXXXXXXXXX            ...oooooo......",
"XXXXX   XXXXXXXXXXXXXXX            ...oooooo......",
"XXXXX   XXXXXXXXXXXXXXX            ...oooooo......",
"     XXX   XXXXXXXXX         XXX   XXX.........XXX",
"     XXX   XXXXXXXXX         XXX   XXX.........XXX",
"     XXX   XXXXXXXXX         XXX   XXX.........XXX",
"..XXX   XXX                  XXX      XXXXXXXXX   ",
"..XXX   XXX                  XXX      XXXXXXXXX   ",
"..XXX   XXX                  XXX      XXXXXXXXX   ",
".....XXXXXX      XXX...ooo                        ",
".....XXXXXX      XXX...ooo                        ",
".....XXXXXX      XXX...ooo                        ",
"..XXXXXX            XXXXXX...            XXXXXXXXX",
"..XXXXXX            XXXXXX...            XXXXXXXXX",
"..XXXXXX            XXXXXX...            XXXXXXXXX",
"XXXXX      XXXXXX   XXXXXXXXX         XXXXXXXXX   ",
"XXXXX      XXXXXX   XXXXXXXXX         XXXXXXXXX   ",
"XXXXX      XXXXXX   XXXXXXXXX         XXXXXXXXX   ",
"           XXXXXXXXX                              ",
"           XXXXXXXXX                              ",
"           XXXXXXXXX                              ",
"                                            XXX   ",
"                                            XXX   ",
"                                            XXX   ",
"              XXXXXX                              ",
"              XXXXXX                              ",
"              XXXXXX                              ",
"                             XXXXXX               ",
"                             XXXXXX               ",
"                             XXXXXX               ",
"  XXXXXXXXX                                       ",
"  XXXXXXXXX                                       ",
"  XXXXXXXXX                                       ",
"                                                  ",
"                                                  ",
"                                                  ",
"                                                  ",
"                                                  ",
"                                                  ",
"                                                  "
};
