/* XPM */
static char *_266607698eb4aeae2dd8d8c0c69d7f1pbwXMySeHodNXKbo[] = {
/* columns rows colors chars-per-pixel */
"78 50 197 2 ",
"   c None",
".  c #070707",
"X  c #090709",
"o  c #0D0D0D",
"O  c #070508",
"+  c #100F0F",
"@  c #0E120D",
"#  c #0E1C0D",
"$  c #10150F",
"%  c #101A0F",
"&  c #0F0F10",
"*  c #100F10",
"=  c #131313",
"-  c #181717",
";  c #141B14",
":  c #181A17",
">  c #181718",
",  c #171818",
"<  c #1B1B1B",
"1  c #201F1F",
"2  c #0F220E",
"3  c #0F280D",
"4  c #11250F",
"5  c #102A0F",
"6  c #12320F",
"7  c #113A0E",
"8  c #142312",
"9  c #152C13",
"0  c #182A17",
"q  c #1B231B",
"w  c #1C2C1B",
"e  c #182417",
"r  c #153213",
"t  c #183416",
"y  c #163B13",
"u  c #193C16",
"i  c #1C341B",
"p  c #1D3B1B",
"a  c #20251F",
"s  c #202C1F",
"d  c #20331F",
"f  c #213B1E",
"g  c #201F20",
"h  c #232323",
"j  c #282727",
"k  c #232C22",
"l  c #282728",
"z  c #2C2C2B",
"x  c #282B27",
"c  c #302F2F",
"v  c #233522",
"b  c #283527",
"n  c #253C23",
"m  c #283B27",
"M  c #2C332B",
"N  c #2D3B2C",
"B  c #30322F",
"V  c #30392F",
"C  c #322F31",
"Z  c #343333",
"A  c #383737",
"S  c #343B33",
"D  c #383837",
"F  c #373638",
"G  c #393639",
"H  c #3B3B3B",
"J  c #403F3F",
"K  c #164312",
"L  c #194216",
"P  c #174B13",
"I  c #194C15",
"U  c #1D431A",
"Y  c #1D4B1A",
"T  c #1A5316",
"R  c #1D511A",
"E  c #1D5B18",
"W  c #21441E",
"Q  c #214C1E",
"!  c #21511D",
"~  c #225C1D",
"^  c #22631D",
"/  c #254324",
"(  c #294326",
")  c #254A22",
"_  c #294D26",
"`  c #2D442C",
"'  c #2E4B2B",
"]  c #30442F",
"[  c #304C2E",
"{  c #265223",
"}  c #2A5126",
"|  c #265E21",
" . c #2A5C25",
".. c #2D532A",
"X. c #2E5A2B",
"o. c #31562D",
"O. c #315A2D",
"+. c #344433",
"@. c #344C32",
"#. c #384D37",
"$. c #3C423C",
"%. c #3C4D3B",
"&. c #384337",
"*. c #355332",
"=. c #385436",
"-. c #365C33",
";. c #395B36",
":. c #3C543A",
">. c #3C5C3A",
",. c #276323",
"<. c #286224",
"1. c #2F642B",
"2. c #32652E",
"3. c #32682E",
"4. c #366233",
"5. c #396336",
"6. c #366A32",
"7. c #3A6A36",
"8. c #3D643A",
"9. c #3D6B3A",
"0. c #3A7236",
"q. c #3D713A",
"w. c #414B3F",
"e. c #41503F",
"r. c #405C3E",
"t. c #41653E",
"y. c #416B3E",
"u. c #42723E",
"i. c #447C3F",
"p. c #3F3F40",
"a. c #403F40",
"s. c #444444",
"d. c #484747",
"f. c #454C44",
"g. c #4A474A",
"h. c #4C4C4B",
"j. c #435442",
"k. c #485447",
"l. c #455A43",
"z. c #495D47",
"x. c #4C534B",
"c. c #4C5A4B",
"v. c #505B4F",
"b. c #514F51",
"n. c #545454",
"m. c #545D53",
"M. c #595759",
"N. c #585958",
"B. c #5B5B5A",
"V. c #5A5E5A",
"C. c #5E5E5E",
"Z. c #5B5B5B",
"A. c #446442",
"S. c #496447",
"D. c #456C42",
"F. c #496C46",
"G. c #4C634A",
"H. c #4C6A4A",
"J. c #50644F",
"K. c #516C4E",
"L. c #457242",
"P. c #497546",
"I. c #457A42",
"U. c #4A7B46",
"Y. c #4C7449",
"T. c #4D7B4A",
"R. c #51724F",
"E. c #517D4E",
"W. c #566455",
"Q. c #536352",
"!. c #586157",
"~. c #546A53",
"^. c #586C56",
"/. c #5A6659",
"(. c #5C625B",
"). c #5B6C5A",
"_. c #547452",
"`. c #597157",
"'. c #547C52",
"]. c #597856",
"[. c #5C7B5B",
"{. c #5B775A",
"}. c #605F60",
"|. c #616261",
" X c #616161",
".X c #6B6C6B",
"XX c #656E64",
"oX c #657363",
"OX c #6F716F",
"+X c #747674",
"@X c #4A8147",
"#X c #51814E",
"$X c #548351",
"%X c #598256",
"&X c #5A8B57",
"*X c #5D895A",
"=X c #5B8359",
/* pixels */
"      . . . . . . . . . . . . X X X X X X X X X X X . . . . X X X X X X X . . . X X X X X X X X X X X . . . . X X X . . . . . . X X X X X X X X X X X X . . ",
"      o o o o o o o & o o o o o o X o o o o o o o o o o o o o o o o o o o o o o o o X o o o o o o o o o o o o * * * o o o o o o o o o o o o o @ o o o o @ o ",
"      h h < < < h h h h l h g > = o o = = ; > > < < < h h g q e e e e e q a h g > * o o = = ; > > < < < q q q < g 1 h h h h l h < = o o @ # 8 8 8 e < < < g ",
"      D D A A A D H H a.s.a.G l = o = > h l x z c A S D D D S N m m ( ` ] &.$.F l = o = > h l x z B A A D S S A F D D H H s.s.a.A l = @ # r u u p v M Z A G ",
"      h.h.h.h.h.n.n.M.B.V.B.h.Z > = = h z Z A H s.d.h.h.h.h.f.:.=.=.;.;.r.c.m.h.Z > = = l z Z A H s.d.h.h.h.h.h.h.h.n.M.M.B.B.B.d.Z > @ 5 L R ! { ' #.f.h.h.",
"      M.M.M.M.B.B.V.(././.W.k.S < = > x A H s.d.h.n.M.M.n.c.c.l.>.8.8.9.y.H.W.c.Z > = > x A H s.d.h.n.M.M.M.M.M.M.B.B.C.|.|.|.(.x.S q 8 r I ~ | X.-.r.G.W./.",
"      M.M.M.Z.C.V.!.Q.H.H.A.;.m ; = < z D s.d.h.b.n.M.n.c.l.l.A.8.8.7.6.7.D.G.j.N : = < z D s.d.h.n.M.M.M.M.M.M.B.C.C.|.|.(./.J.l.] i r K E ^ ,.X.-.A.R.].[.",
"      n.M.M.B.C.(.J.S.t.9.6.X.p ; = < Z H d.h.n.n.M.n.c.l.r.>.8.8.8.6.3.6.9.t.=.m ; = < Z J d.h.n.n.M.M.n.n.M.M.B.C.}.|.|.(.Q.S.>.' W L I E ^ <.2.5.D.E.%X*X",
"      c.v.m.m.!.Q.G.A.9.q.0.2.) 0 ; h A d.h.k.c.v.m.!.Q.z.l.l.t.8.8.6.3.6.q.L.8.m ; = h A d.h.n.n.M.M.n.M.M.M.B.C.|.|.|.|.(.^.K.A.*.) U R ~ ,.2.7.y.Y.'.%X=X",
"      z.z.G.G.G.G.A.t.y.I.@XI.O.p w b $.h.k.l.r.S.K.`.^.~.J.G.S.t.8.7.7.9.U.#XP.[ e = h H h.n.M.M.M.M.M.M.B.B.C.|.|.|.|.|.|.XXoX^.>._ Y !  .2.7.P.T._._.`.`.",
"      t.A.A.A.A.A.t.t.D.#X&X$X9.) f N f.x.l.;.4.q.T.%X[.).(.Q.G.t.8.8.8.L.#X&X'.=.e = l a.n.M.M.n.n.M.M.M.B.C.C.|.|.|.C.|.|.OX+XoXz.' U Q X.7.u.T.$X].^.m.M.",
"      8.8.8.8.8.5.5.8.D.E.&X$X9.{ W ` %.j.r.-.1.6.I.E.].).V.m.z.t.5.5.8.D.'.*X'.#.e = h H h.n.n.n.n.n.n.M.M.B.B.B.B.B.B.B.|..X+X.Xc.` p W ..5.y.T.'._.m.n.b.",
"      4.4.4.-.-.-.-.-.8.L.T.P.4.Q U / @.:.=.O.X.3.9.L.H.v.n.x.j.;.-.-.;.t.R.{.~.&.; o < A d.d.d.d.d.d.d.h.n.n.n.n.n.n.b.n.B.|..X(.f.v 0 p _ -.7.y.D.S.k.d.g.",
"      O.O.O.O.O.o.o.o.-.5.8.5...U y U ) ' ....X.O.O.-.:.f.f.f.%.*.o.o.o.;.S.Q.k.M = X = x A H s.s.s.s.s.s.d.d.d.d.d.d.d.d.h.M.B.x.S q ; 0 W } X.-.-.:.w.s.s.",
"      _ _ _ _ _ } } } ..X.O...) y y y U Q ) _ _ } } } ' S S S ] ' _ _ _ [ %.f.H l o . = h x Z A A D A A A A A A A A A A A H s.d.H x = @ 8 p Q { } _ ' S S G ",
"      w i i p W Q Q ! ! Q ) W L 7 7 7 y L U U U U U U f k h k v n W W U W m z h = X . o = < h h l l l l h h h h l l l l l l x z l > o @ 2 y I Y Y U f k l h ",
"      = ; 8 9 y L I I I I L y y 7 7 7 y y y y y y y y r e ; ; 0 t u u y r 8 = o X X X o = = = = = = = = = = = = = = = = = = = > = * o @ 3 y P P K y 0 e = = ",
"      = = ; 8 6 7 K I I I K y u u u y y 7 y L L L u y 0 e ; ; 8 r y y y r 4 @ o * = = = o o o = = = = = = = = = = o o = = = = = = = = ; t I T I K y 9 ; = = ",
"      z x h e 8 6 L ! ! ! Q ) ( ' ' / L K Y { ....( n v z x k w r y L U W v k l x z z h = o = > 1 h h h h j x h = o = > l x x x x z z V '  .<.~ Q U i w h g ",
"      d.s.A h ; 8 p } X.X.X.*.:.k.j.*.Q T | 6.u.t.:.&.H $.s.S m t u W } *.#.$.s.g.d.d.z > = > l Z Z Z Z D H H Z < = = x H s.d.s.d.g.d.k.S.u.0.3. ._ ` N Z Z ",
"      h.d.D l = ; i ..-.-.-.;.z.!.m.:.) I | q.P.S.e.H J d.d.$.m t u ) X.=.j.f.h.n.M.h.A < = > z A D D D s.d.d.D h = > z d.h.h.h.h.b.n.m.K.U.i.0.O...' S D D ",
"      H D z < * @ w / } } } *.A.~.J.=.W y Y O.8.;.+.B C A D N v t y U _ ' +.H H s.s.D x = o = h z z z z Z A A z > o = l Z H H H H H s.f.S.P.I.7.X.) n M z z ",
"      h < > = o @ 9 u U U U ) -.F.F.*.i 4 r U ) n w < < < q q 0 r r u p p d h h h l h > = o o = > > > < < a 1 > = o o = < h h h h h h b @.y.u.6.{ u t e < < ",
"      = = = * @ % 8 r y y y U ..9.8.[ w $ 2 r y 9 % @ o * = ; 8 r t y y r 8 $ o * = = = o o o = = $ o o o = = = = o = = = = = o o o = e ` 8.u.4.) y 4 # @ o ",
"      > > < < < q i p u y 7 u _ -.;.] k > e t t 9 # o o = > q s v n / f t 8 @ X o = = = > > > > > = o X o = > < < < < h h < = o X o = q ] y.P.8.' f e @ o X ",
"      z z z c B V ` ' _ U y y n ] +.S z j v n f i ; o = g z Z Z S +.@.' / w @ o = < h l l l x z z h = o = h z c c Z A D D Z h = o = < b :.F.T.F.:.N h = o X ",
"      D D D D D $.%.=.*.) u t i b M z z M N ' ' n e $ > l A H H H $.%.=.' w = = > l z z z z Z A A x > = > x A D D D H d.d.H x = = > l S :.F.Y.S.f.S l > o X ",
"      Z Z Z C Z S %.>.-._ u r 0 q h h l z N *.*.( e @ = h z Z Z Z S +.[ ( w $ o = < l l l x z z z h = o = h z Z Z Z A H H A h = o = g z +.;.8.:.&.z g = o X ",
"      < < < < h b @.8.8...u 9 8 ; = = > q m =.5.' w @ o = < < < 1 k v n i 8 @ X o = > > > > < < < = o X o = < < < h h l l < = o X o = < v ( _ n k < = o X X ",
"      = = = o = q [ 8.9.X.U 9 8 ; = o o ; v ;.8.*.w = o o = = * = ; 0 t r 8 @ o * = = = o o = = = + o o o = = = = = = = = = = o o o = = e r t 0 ; = o o o o ",
"      < < = * o e ` A.D.;.) p i h < = o = v *.8.=.b < > > < > = o @ 9 i p w q < g h < = o o = = = > > > > < < , = o o = > < < < < g h q w 9 9 9 ; - > > > > ",
"      D A x > = < S l.G.r.*.' +.$.D l = = w ' ;.=.S z c Z A x > @ % w / ' +.S D H H D l = o = h x z z z c A A x > o = h Z A D D D H H H m t r w k x z z z z ",
"      h.d.D h = > Z f.c.l.=.=.l.c.h.Z < = e n [ @.&.D J d.d.D h = ; d [ =.j.f.h.n.M.d.Z > = > x A D D D J d.d.D h = > z s.d.h.d.h.n.n.k.+.f t d M D D D D D ",
"      d.s.A h = = l D s.%.=.=.j.k.d.Z > @ 8 i ( ' S A H s.s.A g = = w ` @.%.s.d.h.h.d.Z > = > x Z A A A H s.s.A < = = x H d.d.d.d.h.h.d.+.p t i M Z A A A A ",
"      z x h = o o > l z m / ( ` S z g = @ % r p n k l l x x h = o @ ; w k z z Z Z Z z h = o = < h l l l x x x h = o = < l z z z Z Z Z M v t r 0 q h h l l l ",
"      = = = o o o * = ; 0 t t w e = = o @ # 9 r 0 ; = = = = = o o o @ = = = = = > > = = o o o = = = = = = = = = o o o = = = = = = > > ; e 9 r 8 ; = = = = = ",
"      > > > > > > > > < 0 r 9 8 ; = * = = e w i 0 % o o = = > > > > ; ; = @ o o o = = = = = = = = = o o o = = > > > > > > > = o X o * = e 0 t 0 ; = * o X X ",
"      z Z Z Z Z Z A A V v r 9 0 e < < < h j b v w ; o = h z Z Z Z Z M b s ; @ o = > < < < < h l h > = o = h z Z Z Z A A A z < & X = > < a k v k j h > = X X ",
"      d.d.d.d.d.d.h.n.f.+.p r w k x x x z Z S S x ; = < Z s.d.d.d.d.e.:.' w = @ = h x x x x Z A Z l = = < Z s.d.d.d.d.n.h.s.x = o = h x z b M Z A Z l = o X ",
"      d.d.d.d.d.h.n.n.f.+.p r w j x x z z Z A Z l = = < Z d.d.h.d.f.j.:.' w = & > h x x x z Z A Z l = = < Z d.d.d.d.h.n.n.d.z = o > l x x x z Z A Z l - o X ",
"      Z Z Z A A A D D S v t r 0 e < < g h h l l < = o = h Z A A A Z N m k ; @ o = > < < h h l l l < = o = l Z A A A D D D Z < = o = > < 1 g h h l l < = o X ",
"      > > > > > < < < e 0 r 9 8 ; = = = = = = = = o o o = > > < > < < ; ; @ o X o = = = = = = = = = o o & = > > > > < < < > = o o o = = = = = = = = = o o X ",
"      = = = o o o * = ; w i i w : = * o o o = = = = = = = = = o o o = ; ; ; = = = = = = o o o = = = = = = = = = o o o = = = = = = = = = = o o o = = = = = = ",
"      x x h = o o > l z N N ] S Z z 1 = o = > 1 h h h l x l g = o = w m N M z z z z x < = o = > h h h h l x l < = o @ > l x x x z z z x < = o = > h h h h h ",
"      d.s.A h = = l D s.d.f.f.k.h.d.z > = - l Z A Z A D $.$.Z < = e ` r.S.z.d.d.d.d.s.z > = > l Z A Z A D H H Z < = = x D s.d.d.d.d.d.s.z > = > j Z A A Z Z ",
"      h.d.D l = > z s.h.h.h.h.n.M.h.A < = > x A D D D s.d.d.D h = e @.F._.Q.c.h.n.M.h.A > = > z A D D D s.d.d.D h = > z s.h.h.h.h.n.M.d.Z < = > z A D D D D ",
"      H D z < = = h Z D D D H p.s.D x > = = h z z z z Z A A z < = ; m =.r.%.$.H a.s.H x = = = h z z z z Z A A z < = = l A D H D H s.s.D x = = = h z z z z z ",
"      h h > = o & = < h h h h h l h > = o = = > < > > < 1 h < = o = e s k k h h h l h > = o = = > > > > < g h > = o = = < h h h h l l h > = o = = > > > < < ",
"      o o o o X o o o o @ @ @ @ o o o o X o o o o o o o o o o o o o o @ @ @ o o o o o o o o o o o o o o o o o o o o o o o @ o o o o o & o o X o o o o o o o ",
"      . . X X X X X X . . . . . . . X X X X X X X X X X X X X X X X X O . . . . . . . X X o X X X X X X X X X X X o X X X . . . . . . X X X X X X X X X X X "
};
