/* XPM */
static char *f0f7337971ec4069e7ed951d8ae1d7b54soO2YWnDDbkjoDv[] = {
/* columns rows colors chars-per-pixel */
"50 50 175 2 ",
"   c None",
".  c #0B0B0B",
"X  c #100F0F",
"o  c #0F110F",
"O  c #0F1A0E",
"+  c #10140F",
"@  c #101B0E",
"#  c #100F10",
"$  c #141413",
"%  c #181717",
"&  c #151B14",
"*  c #171718",
"=  c #181718",
"-  c #1B1B1B",
";  c #201F1F",
":  c #123A0F",
">  c #152414",
",  c #182017",
"<  c #162C14",
"1  c #182C17",
"2  c #1C241B",
"3  c #1C2B1B",
"4  c #163414",
"5  c #193316",
"6  c #163C13",
"7  c #193C16",
"8  c #1C341A",
"9  c #1C3C19",
"0  c #202B1F",
"q  c #21371F",
"w  c #203B1E",
"e  c #201F20",
"r  c #242424",
"t  c #282727",
"y  c #242B23",
"u  c #282C27",
"i  c #282728",
"p  c #2B2B2B",
"a  c #302F2F",
"s  c #253424",
"d  c #283727",
"f  c #243B23",
"g  c #283C27",
"h  c #2C332B",
"j  c #2D3B2C",
"k  c #30352F",
"l  c #303A2E",
"z  c #312F30",
"x  c #343434",
"c  c #383737",
"v  c #343B34",
"b  c #383D37",
"n  c #3B3B3B",
"m  c #403E3F",
"M  c #164213",
"N  c #194216",
"B  c #1A4C16",
"V  c #1D431A",
"C  c #21451E",
"Z  c #214B1E",
"A  c #21511D",
"S  c #254223",
"D  c #2A4727",
"F  c #254C22",
"G  c #294C26",
"H  c #2C432A",
"J  c #2E4C2C",
"K  c #30452E",
"L  c #304C2E",
"P  c #245421",
"I  c #2A5326",
"U  c #2D542A",
"Y  c #2E5B2B",
"T  c #31532E",
"R  c #325A2E",
"E  c #344332",
"W  c #394137",
"Q  c #354C33",
"!  c #3A4D37",
"~  c #3C453B",
"^  c #3D4B3C",
"/  c #355433",
"(  c #385236",
")  c #365B33",
"_  c #395C35",
"`  c #3D543B",
"'  c #3C5C3A",
"]  c #2B6027",
"[  c #366432",
"{  c #396336",
"}  c #366A33",
"|  c #396B36",
" . c #3D643B",
".. c #3C6A39",
"X. c #3D703A",
"o. c #40423F",
"O. c #404B3F",
"+. c #40533F",
"@. c #415D3F",
"#. c #40643D",
"$. c #416B3E",
"%. c #40713D",
"&. c #413F40",
"*. c #434343",
"=. c #484747",
"-. c #444B44",
";. c #484A47",
":. c #4C4C4B",
">. c #445343",
",. c #445B43",
"<. c #495847",
"1. c #4D544C",
"2. c #4D5C4C",
"3. c #504F50",
"4. c #545454",
"5. c #545B53",
"6. c #585E57",
"7. c #575658",
"8. c #5E5E5E",
"9. c #5A5B5A",
"0. c #436541",
"q. c #466443",
"w. c #456643",
"e. c #466245",
"r. c #466145",
"t. c #476444",
"y. c #456242",
"u. c #496547",
"i. c #496547",
"p. c #436841",
"a. c #456942",
"s. c #476B44",
"d. c #486846",
"f. c #496148",
"g. c #4C624B",
"h. c #4C654A",
"j. c #4F634E",
"k. c #4E614D",
"l. c #4F664D",
"z. c #4F624E",
"x. c #4E694D",
"c. c #50654E",
"v. c #51664F",
"b. c #467242",
"n. c #447341",
"m. c #497047",
"M. c #487345",
"N. c #447940",
"B. c #477944",
"V. c #487845",
"C. c #497946",
"Z. c #4F754C",
"A. c #4D724B",
"S. c #4E7C4C",
"D. c #516150",
"F. c #536551",
"G. c #556254",
"H. c #566254",
"J. c #576056",
"K. c #556554",
"L. c #586457",
"P. c #526851",
"I. c #556954",
"U. c #586E57",
"Y. c #577555",
"T. c #597057",
"R. c #547951",
"E. c #587955",
"W. c #606060",
"Q. c gray38",
"!. c #626262",
"~. c #4F824B",
"^. c #52824F",
"/. c #558451",
"(. c #598356",
/* pixels */
"      . . . . . . . . . . . . . . . . . . . . . . . . . . . . . . . . . . . . . . . . . . . . . . . ",
"      $ $ $ $ $ $ $ $ $ . . . . . $ $ $ $ $ $ $ $ $ o o + $ $ $ . . . . . o $ $ $ $ $ $ $ $ $ $ $ $ ",
"      r r r r r i i i r = $ . $ % = - - r r r r r 2 2 2 3 y y r = $ . $ & = - - r r r r r r r r r i ",
"      n n n n *.*.=.=.b r $ $ - r i p x b n n n b l H H K Q ~ b i $ $ - r i p x c b n n n n n *.*.=.",
"      :.:.3.4.4.5.6.6.;.h = $ r p c n *.;.:.:.1.>.` _ _ ' ,.2.;.x = $ r p c n *.;.:.:.:.:.:.4.7.5.7.",
"      7.7.7.7.6.G.F.c.+.d - $ i c &.=.:.4.4.4.1.<.@. .| { #.h.>.h - $ i c *.=.:.4.7.7.7.7.7.7.8.Q.Q.",
"      7.7.9.6.G.l.d.a./ f & = p n =.:.4.7.4.2.<.,.#. .| } ..a.` j - = p n =.:.4.7.7.7.7.5.8.8.Q.Q.Q.",
"      4.5.6.G.j.w...| Y w > - x o.;.1.4.5.5.2.,.@. . .} } } $._ d 2 = z *.;.4.7.7.7.7.7.7.8.8.Q.Q.Q.",
"      2.2.D.j.u.p.$.N.| I 8 y b -.>.<.f.P.I.F.g.r.0. .| | X.V.#.H 2 - c =.4.4.7.7.7.7.7.9.8.Q.Q.Q.Q.",
"      r.r.u.t.0.$.b.~.B.) S d ~ ;.,. .$.Z.Y.U.K.j.w. .{ ..b.^.M.Q 2 - b ;.4.7.7.7.7.7.9.8.W.W.Q.Q.Q.",
"       . . . . .#.M./.S.| G S ^ >.' [ | V.R.T.L.5.r. .{  .M.(.Z.Q 2 - b ;.4.4.4.4.7.7.7.9.9.8.8.8.8.",
"      { { { _ _ { $.S.M.[ F S Q ( ) R } %.M.c.5.1.,._ _  .s.E.x.E 2 = x *.;.:.:.:.:.4.4.7.4.7.7.4.4.",
"      R R R R R ) { $.{ U V V G J R Y R [ ' >.;.-.( / R ) ' l.>.h & $ i b *.=.=.=.=.=.=.;.;.;.;.=.=.",
"      G G G I I I U R U Z N 6 V F F G I I J E b b K J G U Q ^ b r $ . - p c c c c c b b b b b b b c ",
"      8 9 C Z Z A A F Z N 6 : 6 V V C C C C f u u f S S C S d r = . . $ - r r t t t t r r i i t r r ",
"      & > 4 N B B B N N 6 6 : 6 6 6 6 6 6 4 < , , 1 7 7 6 4 > $ . . . $ $ $ $ $ $ $ $ $ $ $ $ $ $ $ ",
"      - , < 4 M B B N V 9 9 9 6 M N V V V 8 2 2 2 < 4 6 6 4 , $ $ = $ $ # $ $ $ $ = = = $ $ $ $ = = ",
"      i y > < 7 Z P F F J J H V B A I U D g h p u 8 6 N V f s i p p i * $ $ - r r r i i r $ $ = r p ",
"      n x 2 > 8 F Y Y / ` >.( F A ] | #.! W n n v q 7 V G Q ~ *.=.=.b - $ - i x x c b b x = = r c *.",
"      *.c - & 8 G R R ' ,.j.,.F A Y ..w.^ n n ~ W f 9 C J ( O.;.:.;.b - $ - p c c b n n c - = r b =.",
"      p r $ $ < 9 F F R #.u.@.S 9 Z U T j p p p s 8 6 V S H j c c c i $ $ % ; r t i p p r $ $ - i x ",
"      - = $ + > 7 V V F ) #.' q < 5 9 w 2 - = - 2 < 4 7 9 8 3 2 e - = $ $ $ $ = = = - - = $ $ $ - r ",
"      $ $ $ & < 5 6 6 V U _ ( y , > 4 < @ o # $ , 1 8 9 7 < & o # $ $ $ $ $ $ $ # X $ $ $ $ $ $ = = ",
"      r r r u s S V 6 9 D Q E u y 3 8 5 O $ $ r u d g H S 8 & o $ = - - r r r - $ $ = ; r r i i p x ",
"      x x x v E L G 9 7 f j k p h g S w & $ - i x v W Q J f & $ $ r r r i p p r $ $ - i x x c b *.*.",
"      x x x b ! ( T V 5 3 y y r h H J S , $ - i x x v E J f & $ $ r r r i p p r $ $ - i x x c b *.*.",
"      r r r h Q ' ) C 4 > - = - u J / J 2 $ $ - r r u d f 8 & o $ = - - r r r - $ $ $ ; r r i i p x ",
"      $ $ $ 2 J ' { F 4 > $ $ $ 2 H _ / 3 $ # $ $ $ & 1 5 < & o # $ $ $ $ $ $ $ . X $ $ $ $ $ $ = = ",
"      - = $ 2 j '  .J f 3 2 = $ & g / / s 2 = = = $ $ > 8 8 3 2 e ; - $ $ $ % = = = - - = $ $ $ - r ",
"      p r $ - j +.r./ J K x i $ & f L ( j p p p r $ & < f H j c c x i = $ % e t r i p p r $ $ - i x ",
"      *.c - - h -.<.` ` >.-.b - & 3 H Q W n m n c - & 3 H ( -.;.:.;.b - $ - p c c b n n c - = r b =.",
"      n x = * r v ~ ! ( ` -.c - & 1 f H l v n b x = & 2 g E ~ =.;.=.c - $ - i x x c b n x = = r c *.",
"      i r $ $ = r h g H j h r $ $ > 8 w y y i i r $ o & 2 u p h x p r $ $ $ - r r r i i r $ $ = r p ",
"      = * $ $ $ = 2 8 8 3 2 $ $ $ > < 1 , & = = $ $ $ $ & & = = = = $ $ . $ $ $ $ $ = = $ $ $ $ = - ",
"      - - - - - 2 2 < < > & $ $ & 2 1 1 & + $ = - - - 2 - & o . . $ $ $ $ $ $ $ $ X $ = - - - - r r ",
"      c c c b b n v 8 4 1 2 r r r p d y & $ - p c b v v j y & $ $ - r r r r r r $ $ r p c b b n n n ",
"      *.*.=.=.;.-.~ f 8 1 y r i i h k u & $ r b =.=.*.^ E d & $ $ r r i i p a r $ * r b =.=.=.;.;.:.",
"      *.*.*.*.=.=.W f 5 1 y r r i p p r $ $ r c *.*.o.~ E s & $ $ r r r i p p r $ $ r c *.*.*.=.;.;.",
"      i i i p p p s 8 < > & = = - - - = $ $ = r i i p u y 2 + . $ $ = = - - - = $ $ = r i i p p p p ",
"      = = $ $ = - 2 1 < > & $ $ $ $ $ $ $ $ $ $ = $ & & & & $ $ $ $ $ $ $ $ $ $ $ $ $ $ = $ $ = = = ",
"      r - $ $ $ - y d d s y - $ $ $ = - - - - e = $ $ & 0 u y r r r - $ $ $ = - - - - r = $ $ $ - r ",
"      x i $ $ - p n ~ ~ ~ n p = $ = r i i p x x y $ & s E ! W n n b p = $ = r i i p x x i $ $ - p c ",
"      *.c - = i n ;.;.:.1.:.n 2 $ ; p c c n *.*.c - 2 H ,.x.1.:.:.;.n - $ ; p c c n *.*.c - = i n ;.",
"      b p = $ r x n n n *.n x - $ - t a p x c c p = - s ! ,.^ *.*.n x - $ - t a p x c c p = $ r c n ",
"      r - $ $ = r i i i p i r $ $ $ - r r r r r - $ $ 2 s j h p p i r $ $ $ - r r r r r 2 $ $ = r i ",
"      $ $ . . . $ $ $ $ $ $ $ . . . $ $ $ $ $ $ $ . . $ $ & $ $ $ $ $ . . . $ $ $ $ $ $ $ . . $ $ $ ",
"      . . . . . . . . . . . . . . . . . . . . . . . . . . . . . . . . . . . . . . . . . . . . . . . ",
"                                                                                                    ",
"                                                                                                    ",
"                                                                                                    "
};
