/* XPM */
static char *a93a7c9382044e15d66fa004937e5312jVbXYEXGCSmNi3XI[] = {
/* columns rows colors chars-per-pixel */
"30 30 133 2 ",
"   c None",
".  c #070707",
"X  c #0C0C0C",
"o  c #0D130D",
"O  c #100F10",
"+  c #131313",
"@  c #141A14",
"#  c #171618",
"$  c #181718",
"%  c #1B1A1A",
"&  c #201F1F",
"*  c #10200F",
"=  c #12390F",
"-  c #132412",
";  c #172A15",
":  c #1A241A",
">  c #1C2B1B",
",  c #153213",
"<  c #1A3317",
"1  c #153B12",
"2  c #183E15",
"3  c #1C331B",
"4  c #1C3B1A",
"5  c #223E1F",
"6  c #242424",
"7  c #252B24",
"8  c #282E27",
"9  c #282728",
"0  c #2B2B2B",
"q  c #273725",
"w  c #283627",
"e  c #253B23",
"r  c #283A26",
"t  c #2C322C",
"y  c #2C3B2B",
"u  c #302F30",
"i  c #323232",
"p  c #383737",
"a  c #353B34",
"s  c #393E37",
"d  c #3C3B3B",
"f  c #164113",
"g  c #194316",
"h  c #174B13",
"j  c #1C4219",
"k  c #1F4E1B",
"l  c #21451E",
"z  c #22491F",
"x  c #21521D",
"c  c #254223",
"v  c #284425",
"b  c #244B20",
"n  c #294B27",
"m  c #2C442B",
"M  c #2D4A2B",
"N  c #31442F",
"B  c #314C2E",
"V  c #255422",
"C  c #295126",
"Z  c #2C5429",
"A  c #2F5A2C",
"S  c #31562E",
"D  c #325A2F",
"F  c #334332",
"G  c #354B34",
"H  c #3D463C",
"J  c #3D4C3B",
"K  c #385335",
"L  c #355B33",
"P  c #395B36",
"I  c #3A5438",
"U  c #3D5D3A",
"Y  c #2F662B",
"T  c #32692E",
"R  c #376534",
"E  c #3A6437",
"W  c #366C32",
"Q  c #3A6837",
"!  c #3D623A",
"~  c #3D6A3A",
"^  c #41623F",
"/  c #426C3E",
"(  c #434343",
")  c #484747",
"_  c #444A43",
"`  c #484E47",
"'  c #4B4B4B",
"]  c #445743",
"[  c #475B46",
"{  c #485947",
"}  c #4D544C",
"|  c #4B5C4A",
" . c #545454",
".. c #575857",
"X. c #575856",
"o. c #545854",
"O. c #565C55",
"+. c #525851",
"@. c #585759",
"#. c #585959",
"$. c #5B5A5A",
"%. c #5B5B5B",
"&. c #5B5E5B",
"*. c #5C5B5D",
"=. c gray37",
"-. c #436640",
";. c #456543",
":. c #486147",
">. c #496646",
",. c #496647",
"<. c #426B40",
"1. c #446B41",
"2. c #4B6649",
"3. c #4C644A",
"4. c #4F614E",
"5. c #4F634E",
"6. c #4E664C",
"7. c #4B7448",
"8. c #4C7E49",
"9. c #526750",
"0. c #556654",
"q. c #586D57",
"w. c #596158",
"e. c #557653",
"r. c #537550",
"t. c #5A7058",
"y. c #606060",
"u. c gray38",
"i. c gray39",
"p. c #4F854B",
"a. c #538450",
"s. c #5A8957",
"d. c #5F885C",
/* pixels */
"    . . . . . . . . . . . . . . . . . . . . . . . . . . . . ",
"    6 6 6 9 9 $ X + $ % 6 6 6 : : > 6 $ X + $ % 6 6 6 6 6 6 ",
"    ' '  .X.X.t + 6 i d ' ' ` I L U +.i + 6 i d ' ' ' '  ...",
"    @.*.w.9.2.w + u ( '  .+.[ ^ Q ~ 6.t + i ) ' o.#.#.*.u.u.",
"    o.&.5.~ W 4 + p ` +.X.| U ! R T / r + p ' o.o.o.o.*.y.y.",
"    :.3.;./ p.D 3 ) ] ! e.q.5.-.Q ~ a.B + ( o.o.o.#.*.u.u.u.",
"    ! ! ! / s.Q l _ U T 8.t.O.^ E 1.d.G + (  . . .o.#.#.#.#.",
"    D D D L <.Z 2 M S A R ] _ K S P 0.t . i ( ) ) ) ' ' ' ' ",
"    5 b b V C j = j z b z r t v b v a % . % 0 0 0 0 0 0 0 0 ",
"    @ , h h f 1 = 1 1 1 1 - @ , 2 , o . . X + + + + + + + + ",
"    7 - 2 V b M M g x A v t 8 , g c 7 0 0 + + 6 6 0 6 X $ 0 ",
"    ( @ 3 L L | | k Y 7.H ( _ 4 z P `  .' + & d d ) ( + 0 ' ",
"    6 X - z z ! >.< j Z 7 6 7 , 2 c t 0 0 + + 6 6 6 6 X $ 0 ",
"    + + ; 1 = Z U : - , o X @ < 4 , o X + + + + X X + + + + ",
"    i i F n 1 e F 0 q 5 o % i a G v + + 6 6 0 0 + % i i d ( ",
"    i i J P 4 ; 6 6 N B @ % i i F v + + 6 6 0 0 + % i i d ( ",
"    + + m ~ 4 * O + m ! @ X + + ; , o X + + + + X X + + + + ",
"    6 X y >.M y 0 O e U 8 6 6 X - c t 0 0 + + 6 6 6 6 X $ 0 ",
"    ( + 0 } I { ' $ > B s ) ( + > I `  .' + & d d ) ( + 0 ' ",
"    6 X # 8 v y 0 + - 4 7 0 6 X @ 7 0 i 0 + + 6 6 0 6 X $ 0 ",
"    + + + @ , - + + - ; o O + + + + X X X + + + X + + + + + ",
"    d ( ) H 4 ; 6 6 t t + 6 d ( H y + + 6 6 0 0 + 6 d ( ) ) ",
"    ( ) ' _ 4 > 6 0 0 0 + 6 ) ) J m + + 6 0 0 0 + 6 ) ) ' ' ",
"    $ $ $ % , - + + + + X + $ $ @ + X X + + + + X + $ $ $ $ ",
"    6 X + 7 y y 6 X + % 6 6 6 X : y 8 0 6 X + % 6 6 6 X + 6 ",
"    ( + 0 ' ' o.' $ & d d ) ( + m r.}  .' + & d d ) ( + 0 ' ",
"  i 0 + % u 0 i 0 + + 6 6 0 0 + > F i i 0 + + 6 6 0 0 + % i ",
"    X . X X X X X . X X X X X . X X X X X . X X X X X . X X ",
"                                                            ",
"                                                            "
};
