/* XPM */
static char *_daac9ae01864431fdf27a63a1b6fbb2GavPedCZaTEyO9W3[] = {
/* columns rows colors chars-per-pixel */
"55 50 187 2 ",
"   c None",
".  c #1B0B17",
"X  c #1E0D18",
"o  c #200F19",
"O  c #24121A",
"+  c #28161B",
"@  c #2D1A1C",
"#  c #321E1D",
"$  c #36211E",
"%  c #3B251F",
"&  c #3C2520",
"*  c #3E2821",
"=  c #442C22",
"-  c #482F22",
";  c #4C3323",
":  c #523725",
">  c #553B26",
",  c #583D26",
"<  c #533928",
"1  c #5A3E28",
"2  c #5D422A",
"3  c #5D4026",
"4  c #624326",
"5  c #63462A",
"6  c #664929",
"7  c #6C4D2B",
"8  c #75542D",
"9  c #7A572D",
"0  c #7B592E",
"q  c #664B31",
"w  c #6D4F31",
"e  c #745531",
"r  c #7C5A31",
"t  c #755838",
"y  c #805F34",
"u  c #856233",
"i  c #896533",
"p  c #84653E",
"a  c #8E6B3A",
"s  c #8B6938",
"d  c #926C35",
"f  c #926E3A",
"g  c #96713A",
"h  c #9D763A",
"j  c #9F793B",
"k  c #A2793B",
"l  c #846641",
"z  c #8F7149",
"x  c #9A7847",
"c  c #9E7E50",
"v  c #AA813F",
"b  c #A7803F",
"n  c #9E8055",
"m  c #AC8543",
"M  c #A5824C",
"N  c #A98448",
"B  c #B48B43",
"V  c #B88F44",
"C  c #BD9245",
"Z  c #BC924A",
"A  c #A48350",
"S  c #AC8D5E",
"D  c #B59053",
"F  c #BB9A63",
"G  c #BB9C6A",
"H  c #C29646",
"J  c #C59847",
"K  c #C1964A",
"L  c #C59B4B",
"P  c #CA9E4B",
"I  c #C59B52",
"U  c #C29D5C",
"Y  c #C89E51",
"T  c #CEA14C",
"R  c #D2A64E",
"E  c #D6A94F",
"W  c #DAAD4F",
"Q  c #CCA254",
"!  c #CBA35A",
"~  c #D2A753",
"^  c #D5AA52",
"/  c #D9AE52",
"(  c #D4AB5C",
")  c #D9AF58",
"_  c #DDB154",
"`  c #DEB35C",
"'  c #E2B656",
"]  c #E6BA57",
"[  c #E2B759",
"{  c #E5B959",
"}  c #E9BE5B",
"|  c #CCAA6A",
" . c #CDA660",
".. c #D2AC64",
"X. c #D1AD6A",
"o. c #D6B067",
"O. c #D4B16E",
"+. c #DAB56B",
"@. c #C6A874",
"#. c #D5B374",
"$. c #DDBA75",
"%. c #D2B47C",
"&. c #DCBB7B",
"*. c #D8B778",
"=. c #E4BC64",
"-. c #E5BD6C",
";. c #E4BF72",
":. c #E2BF7B",
">. c #ECC15D",
",. c #F0C55E",
"<. c #EDC462",
"1. c #ECC46A",
"2. c #F1C661",
"3. c #F5CB63",
"4. c #F9CE65",
"5. c #F0C769",
"6. c #F4CB6A",
"7. c #F9CF69",
"8. c #FBD166",
"9. c #FED46A",
"0. c #FFD96E",
"q. c #E7C271",
"w. c #ECC773",
"e. c #EFCA76",
"r. c #E4C27B",
"t. c #F3CC73",
"y. c #F3CF78",
"u. c #F7D072",
"i. c #FCD573",
"p. c #FFDB74",
"a. c #F5D27B",
"s. c #FAD67B",
"d. c #FFDB7C",
"f. c #FFE27E",
"g. c #DCBD82",
"h. c #DABF8C",
"j. c #D0B584",
"k. c #DFC085",
"l. c #DFC38C",
"z. c #E4C484",
"x. c #EECD82",
"c. c #E2C68D",
"v. c #E6C98C",
"b. c #F1CF83",
"n. c #F5D484",
"m. c #FCDA83",
"M. c #F5D68D",
"N. c #FCDD8C",
"B. c #F8D685",
"V. c #E4C994",
"C. c #ECCF92",
"Z. c #E5CC99",
"A. c #E9CF9A",
"S. c #EDD39C",
"D. c #EDD092",
"F. c #F1D494",
"G. c #F7D991",
"H. c #F9DC95",
"J. c #F5DA9B",
"K. c #F5DA9C",
"L. c #FFE283",
"P. c #FFE88E",
"I. c #FFE193",
"U. c #FFE897",
"Y. c #FDE29B",
"T. c #FFE99A",
"R. c #ECD4A3",
"E. c #EFDAAB",
"W. c #F3DBA5",
"Q. c #F2DCAB",
"!. c #F0D7A1",
"~. c #F1DDB0",
"^. c #FDE4A3",
"/. c #FCE5AB",
"(. c #FFEAAC",
"). c #F7E1AD",
"_. c #F5E2B5",
"`. c #FAE5B3",
"'. c #F7E6BC",
"]. c #F8E6B9",
"[. c #F8E7BE",
"{. c #F8E6BB",
"}. c #FBE8B9",
"|. c #FDEEC6",
" X c #FBEAC2",
".X c #FDEEC8",
"XX c #FFF1CC",
/* pixels */
"                                    . . X X X X X X X X X X X X X X X . .                                     ",
"                                    O O O O O O O O O O O O O O O O O O O                                     ",
"                                    # # # # # # # # # # # # # # # # # # #                                     ",
"                                    = - ; ; ; ; ; ; ; ; ; ; ; ; ; ; ; - =                                     ",
"                                @ = : 4 6 7 7 7 7 7 7 7 7 7 7 7 7 7 6 5 : = @                                 ",
"                              o # ; 5 0 i d d d d d d d d d d d d d i r 5 ; # o                               ",
"                            O + & > e f m B V V B B B B B B B B B B v f e > & + O                             ",
"                          @ # * ; q p M I ! ! ! ! ! ! ! ! ! ! Q Q T K b i 6 ; * # @                           ",
"                        # % ; , 6 p c F #.$.:.:.&.&.&.&.&.&.$.-.=.` ^ C j y 6 , ; % #                         ",
"                      O % ; 4 8 s c F %.c.S.S.S.S.S.S.S.S.S.D.x.e.1.[ R V j i 8 4 ; % O                       ",
"                    X @ = 1 9 d N F %.V.E._.{._._._._._._._.W.J.B.t.1.[ R C v d 0 2 = @ X                     ",
"                  + @ & ; 7 a m U #.V.Q.[.|.|. X[.[.[.[.[.{.).Y.N.s.7.2.] ^ L m a w ; & @ +                   ",
"                $ % = < q p M U #.v.W.{..XXX|.[._.Q.Q.E.Q.Q.W.H.m.p.0.7.5.-.o.U A l q < = % $                 ",
"              $ = : 5 e p c F %.v.W.`.|.XX.X'.E.A.c.c.l.c.c.v.x.a.i.i.i.s.b.z.%.G n l e 5 : = $               ",
"            + % ; 6 r f M F %.V.Q.`.|.XXXX XQ.V.&.O.X.| X.O.+.-.5.8.0.p.N.H.S.Z.j.G A f r 6 ; % +             ",
"          X + % > 8 d m U #.V.E.[.|.XXXX X_.S.g.X.! I I I Q ~ ` } 3.9.d.I.^.`.E.V.%.U m d 8 > % + X           ",
"          X + % > 9 h Z ..z.R.'..XXX.X X_.E.V.*.X.! I L J P R / ] >.7.s.I.^.`.).S.r...Z h 0 > % + X           ",
"          X + % , 0 k K ..z.Q. XXX.X'.Q.R.V.c.g.*.O...( ~ ^ E W ' ] <.t.B.Y.^.^.F.r.( K k 0 , & + X           ",
"          X + % , 0 k K ..v.Q. X.X'.E.V.k.g.g.l.c.c.z.;.=.[ ' _ / _ ` =.e.B.N.N.n.-.( H k 0 , & + X           ",
"          X + % , 0 h Z ..z.W.[. X~.V.*.X.O.&.V.R.W.K.M.y.5.>.' / R ~ ) =.t.s.a.6.=.~ C j r , & + X           ",
"          X + % > 0 h Z ..z.!._._.R.k...!  .*.V.Q.`.(.Y.m.9.2.] W T P R ` <.7.7.2.[ R C h r , & + X           ",
"          X + % , 0 h Z ( r.F.W.W.C.$.! L Q O.v.W.(.(.U.L.i.3.] E P J T _ >.3.3.,.' R C h r , & + X           ",
"          X + & , 0 h C ( ;.b.G.G.x.+.Q K Y o.z.H.T.T.P.f.p.4.{ E P H P / } 3.3.,.[ R C h r , & + X           ",
"          X + & , 0 h C ~ =.t.a.a.w.` T J P ( q.n.N.L.L.p.0.3.{ ^ P J P / >.3.3.,.[ R C h 0 , & + X           ",
"          X + & , r h C ~ [ 5.u.u.1.` T J P ) =.6.i.p.p.0.9.3.] ^ P J T _ >.3.3.,.' R C h r , & + X           ",
"          X + & , r h C ~ { 5.u.u.1.[ ^ T R / ] <.3.4.8.4.3.<.] / R T ^ [ <.4.3.,.[ R C h r , & + X           ",
"          X + & , r k C ^ =.t.s.m.a.1.` / / / ' ] } } } } } ] ' / / / _ } 3.8.4.2.] R C k r , & + X           ",
"          X + & , 0 k K ( q.n.H.Y.N.a.1.{ ' _ _ / / / / / / / _ _ ' ] >.2.8.9.4.2.] E H k r , & + X           ",
"          X + % , 0 k K ..r.F.)./.^.N.a.5.} ' / R T P P P T R / [ } 2.3.8.9.9.4.,.[ R C k r , & + X           ",
"          X + % > 8 g V ! &.A.Q.`.(.I.d.9.2.] / T P J H J P T / ] 2.4.9.9.9.8.3.} / P B g e > & + X           ",
"          X + % : 7 i x D @.h.R.W.^.I.d.0.3.>.' ^ T P P P T ^ ' >.3.9.9.9.8.3.} / L B j i 7 : & + X           ",
"            + % ; 3 7 y z S @.h.C.M.m.p.0.8.3.} ' _ / / / _ ' } 3.8.9.9.8.3.} _ L m g y 7 2 ; % +             ",
"                % = : 2 t z S | $.w.t.9.0.9.8.3.>.>.} } } >.>.3.8.9.9.8.3.} _ P m a e 2 : = *                 ",
"                  # $ = 1 t x D ! ` <.3.8.9.8.8.4.3.3.3.3.3.4.8.9.9.8.3.} _ T V g e 1 = $ #                   ",
"                  X O # - 5 u k V P _ } 2.4.8.4.4.3.3.3.3.3.4.4.8.4.2.} _ P V k u 5 = # O X                   ",
"                    . + % > 7 u g m J / } 2.3.2.2.2.2.2.2.2.2.2.3.2.} / L m g u 7 > * + .                     ",
"                        $ = > 5 8 a m L / ] { { ] ] ] ] ] ] ] { { ] / L m a e 5 > = $                         ",
"                          $ % - , 8 f B P E / E E R R R R R E E / E P B f e 1 ; * $                           ",
"                            + # = 2 r h B H H H C C C C C C C H H H B h r 2 = # +                             ",
"                            . O $ ; 7 i g k k k k k k k k k k k k k g u 7 ; $ O .                             ",
"                              X @ = 1 7 r r r r r r r r r r r r r r r 7 1 = @ X                               ",
"                                  * ; : , 1 1 1 1 1 1 1 1 1 1 1 1 1 , : ; *                                   ",
"                                    % & * * * * * * * * * * * * * * * & %                                     ",
"                                      + + + + + + + + + + + + + + + + +                                       ",
"                                      X X X X X X X X X X X X X X X X X                                       ",
"                                                                                                              ",
"                                                                                                              ",
"                                                                                                              ",
"                                                                                                              ",
"                                                                                                              "
};
