/* XPM */
static char *_9efcd33a7c3454fd137712827e113adZYWTuFRBCDbLMWpe[] = {
/* columns rows colors chars-per-pixel */
"55 45 154 2 ",
"   c None",
".  c #272F1A",
"X  c #262E1A",
"o  c #26311A",
"O  c #2D321E",
"+  c #2D381D",
"@  c #323A1F",
"#  c #2E3520",
"$  c #2D3821",
"%  c #313721",
"&  c #333922",
"*  c #3A3B23",
"=  c #443923",
"-  c #4D3924",
";  c #593722",
":  c #523924",
">  c #643A27",
",  c #6A3B27",
"<  c #703B28",
"1  c #7A3B29",
"2  c #3C4425",
"3  c #3F4826",
"4  c #3E442D",
"5  c #424C26",
"6  c #434B29",
"7  c #465129",
"8  c #49542A",
"9  c #4E5A2C",
"0  c #515E2D",
"q  c #444A33",
"w  c #484F35",
"e  c #4C5433",
"r  c #54622E",
"t  c #5B6B2E",
"y  c #536326",
"u  c #5F712E",
"i  c #576530",
"p  c #586630",
"a  c #5C6B32",
"s  c #61722F",
"d  c #637334",
"f  c #677836",
"g  c #697B35",
"h  c #64733A",
"j  c #6B7D3A",
"k  c #555A44",
"l  c #5B6250",
"z  c #7B7B4B",
"x  c #707956",
"c  c #7B7E72",
"v  c #8B3C2B",
"b  c #873C2A",
"n  c #9A3D2C",
"m  c #933D2C",
"M  c #A33E2E",
"N  c #AB3E2E",
"B  c #B53E2F",
"V  c #B83E30",
"C  c #8D7F5E",
"Z  c #6D8035",
"A  c #6E8139",
"S  c #71843B",
"D  c #75893C",
"F  c #788D3D",
"G  c #7C923E",
"H  c #7E9440",
"J  c #758250",
"K  c #7A845E",
"L  c #7D836C",
"P  c #7D8075",
"I  c #80973E",
"U  c #809A3F",
"Y  c #819741",
"T  c #849B41",
"R  c #889E44",
"E  c #92885D",
"W  c #8CA545",
"Q  c #8FA946",
"!  c #8DA248",
"~  c #91AB46",
"^  c #93AE48",
"/  c #99AF4E",
"(  c #94A24F",
")  c #94B047",
"_  c #96B249",
"`  c #99B54A",
"'  c #9EBB4D",
"]  c #9DAA55",
"[  c #A1BE4E",
"{  c #A5A85F",
"}  c #A4BD53",
"|  c #A3B555",
" . c #818A69",
".. c #818772",
"X. c #828678",
"o. c #85897C",
"O. c #A6A760",
"+. c #ADAC65",
"@. c #B1AD69",
"#. c #B5BE65",
"$. c #B4B668",
"%. c #B7B969",
"&. c #B9BD69",
"*. c #C3BB76",
"=. c #A4C14F",
"-. c #A6C550",
";. c #ACC059",
":. c #C1C36F",
">. c #C7C475",
",. c #D3CB7E",
"<. c #8C8F83",
"1. c #8D9182",
"2. c #939788",
"3. c #9A9D92",
"4. c #9D9F98",
"5. c #9FA19B",
"6. c #A5A89F",
"7. c #A9ACA3",
"8. c #B0B2AC",
"9. c #CFB984",
"0. c #CBB482",
"q. c #D0B687",
"w. c #D5B78B",
"e. c #D5B88B",
"r. c #D7C686",
"t. c #DAC887",
"y. c #DAD282",
"u. c #E8CA96",
"i. c #E7C499",
"p. c #ECC59C",
"a. c #E8C898",
"s. c #F1CC9F",
"d. c #F2D29D",
"f. c #F0C7A0",
"g. c #F3CDA1",
"h. c #FBD5A5",
"j. c #FED9A6",
"k. c #FFD7A8",
"l. c #FFD9AB",
"z. c #FFDEB0",
"x. c #D2D3CE",
"c. c #D4D6D0",
"v. c #DDDDDB",
"b. c #DFE0DD",
"n. c #E5E6E3",
"m. c #E9E9E7",
"M. c #EBEBE9",
"N. c #EBECEA",
"B. c #EFF0EE",
"V. c #F0F0EF",
"C. c #F4F5F3",
"Z. c white",
"A. c #FDFDFD",
"S. c #F8F9F8",
/* pixels */
"                                                                                                              ",
"                                                                                                              ",
"                                                                                                              ",
"                                                                                                              ",
"                                                                                                              ",
"                                                                                                              ",
"                                        % % % % % % % % % % % % % % % % %                                     ",
"                                      7 9 9 9 0 r r r r r r r r r r r r r 8                                   ",
"                            % % % # & r D G G T W W W W W W W W W W W ~ R p &                                 ",
"                          # % 3 9 5 @ 5 d g g I ` [ =.=.=.[ ` ` ` ` ` =.` a &                                 ",
"                        % % % 0 S d 2 & 3 3 6 d R ` ' [ ' _ W W W W W ` ^ a &                                 ",
"                      : > : * 7 d J L P c c c x j T ` W F Y Q ~ ~ ~ W T A 8 %                                 ",
"                    % > M b = + 3 ..c.N.n.M.b.2.e g ^ S 8 j ` ' ' ' ^ g 5 & %                                 ",
"                    % , B n = o % o.V.A.A.A.A.5.q u ^ G d G ' =.[ =.` F i 3 %                                 ",
"                    % > N m = o & o.M.A.A.A.S.4.q u ` ' ^ ` ' ' ' ' ' ' W i %                                 ",
"                    % : 1 , * o & o.B.A.A.A.A.5.q t ` =.=.[ ' ' ' ' [ -._ a &                                 ",
"                    % * * * & O & X.n.A.A.A.C.3.w s ` =.' ' ' ' ' ' ' =.^ a &                                 ",
"                      $ $ = , ; * l 3.x.C.v.7. .j G ` [ ' ' ' ' ' [ =.-._ a &                                 ",
"                        % > M v = $ q 3.m.8.k d ~ ' ' ' ' ' ' ' ' ' ` ' ~ p &                                 ",
"                        % , V n = X O <.N.7.4 y ~ [ ' [ ' [ =.=.' T j j d 8 %                                 ",
"                        % > N v = o 2 1.b.6.w y R _ ' ' ' ' ` ' ^ d 3 & 2 & %                                 ",
"                        % - < > * 5 p K 2.L h Z T W ^ ` ` T g f f 0 O   O #                                   ",
"                        % & * & & 0 D h e a H W W W W ` ` A 5 * 2                                             ",
"                              # % 6 p t t Z R Q ~ ~ ~ ` ` I d 5 %                                             ",
"                                % % & r G W ! / } } } } } } / d &                                             ",
"                                  O % r T ] @.*.,.,.,.,.,.y.>.z *                                             ",
"                                    & r Y +.q.p.h.j.j.j.j.l.p.C *                                             ",
"                                    % 0 Y +.w.f.k.l.l.l.l.z.g.C *                                             ",
"                                    3 t T +.w.p.j.l.k.k.k.l.s.C *                                             ",
"                            % O O 0 A G R +.w.f.k.l.l.l.l.l.g.C & . %                                         ",
"                            % & 3 d ~ ) W O.0.i.d.h.h.h.h.j.u.E 6 @ %                                         ",
"                            % 8 A R ^ ~ W ( { $.:.r.i.p.i.t.:.] S 9 &                                         ",
"                            % r R W Y T R W W ) } &.9.e.9.%.' ' ^ a &                                         ",
"                            % 5 i i r g T Q ) ` [ ;.#.&.#.| ~ _ W a &                                         ",
"                            % % % % & r Y _ ' ` ~ Q Q ~ W R G G F r &                                         ",
"                                  O % r Y ` ' Y a r r r r 0 9 9 9 7                                           ",
"                                    & r Y ~ W f 2 O % % % % % % %                                             ",
"                                    & p T D p 8                                                               ",
"                                    & 0 S a *                                                                 ",
"                                    % 3 8 7                                                                   ",
"                                    % % %                                                                     ",
"                                                                                                              ",
"                                                                                                              ",
"                                                                                                              ",
"                                                                                                              "
};
